<svg width="227" height="227" viewBox="0 0 227 227" fill="none" xmlns="http://www.w3.org/2000/svg">
<circle cx="113.5" cy="113.5" r="113.5" fill="#FAFAFA"/>
<path d="M105.206 144.189C107.156 143.776 119.036 143.776 120.986 144.189C122.653 144.574 124.455 145.473 124.455 147.437C124.358 149.307 123.261 150.965 121.746 152.017C119.78 153.549 117.474 154.519 115.063 154.869C113.73 155.042 112.42 155.046 111.133 154.869C108.718 154.519 106.412 153.549 104.451 152.013C102.931 150.965 101.834 149.307 101.737 147.437C101.737 145.473 103.54 144.574 105.206 144.189ZM113.326 77C121.439 77 129.726 80.8494 134.649 87.2362C137.842 91.3487 139.308 95.4574 139.308 101.844V103.506C139.308 108.404 140.602 111.291 143.451 114.618C145.61 117.069 146.3 120.215 146.3 123.628C146.3 127.038 145.18 130.275 142.936 132.902C139.998 136.053 135.854 138.064 131.625 138.413C125.497 138.936 119.365 139.376 113.152 139.376C106.935 139.376 100.807 139.112 94.6786 138.413C90.446 138.064 86.3025 136.053 83.3683 132.902C81.1241 130.275 80 127.038 80 123.628C80 120.215 80.6938 117.069 82.8489 114.618C85.787 111.291 86.9963 108.404 86.9963 103.506V101.844C86.9963 95.2845 88.632 90.9952 92.0003 86.7963C97.0082 80.6726 105.035 77 112.978 77H113.326Z" fill="black"/>
<circle cx="129.5" cy="81.5" r="8.5" fill="#FF9A2E" stroke="white" stroke-width="2"/>
</svg>
