<svg width="199" height="199" viewBox="0 0 199 199" fill="none" xmlns="http://www.w3.org/2000/svg">
<circle cx="99.5" cy="99.5" r="99.5" fill="#F4F7FA"/>
<path d="M132.457 144.663C132.738 145.531 133.043 146.397 133.372 147.262C110.203 150.481 85.5745 153.903 59.3481 157.548C44.4699 122.307 73.7279 83.5112 59.3646 47.3976C62.1783 47.3778 64.9741 47.3591 67.752 47.3415L133.374 46.895C145.001 78.9747 122.312 113.148 132.457 144.663Z" fill="url(#paint0_linear_1044:1010)"/>
<path style="mix-blend-mode:multiply" opacity="0.4" d="M132.457 144.663C111.826 147.408 89.7448 150.349 66.0554 153.503C51.8736 119.232 77.7092 82.5579 67.7499 47.3415L133.372 46.895C145.001 78.9747 122.312 113.148 132.457 144.663Z" fill="url(#paint1_linear_1044:1010)"/>
<path d="M146.266 140.864L63.0301 152C45.8754 110.344 79.4577 65.6236 63.0301 23L146.266 25.7076C159.388 63.7925 132.628 103.547 146.266 140.864Z" fill="white"/>
<path d="M131.031 60.0586L92.1839 59.887C92.0665 57.9248 91.8685 55.9606 91.5757 53.9937L130.493 54.5193C130.752 56.368 130.927 58.2142 131.031 60.0586Z" fill="#D8DEE8"/>
<path d="M84.224 70.3358L78.5381 70.4014C78.6508 68.6782 78.7196 66.9554 78.7352 65.2331L84.4178 65.2119C84.4024 66.9196 84.3378 68.6276 84.224 70.3358Z" fill="#D8DEE8"/>
<path d="M139.453 67.4071L86.3164 67.8182C86.3504 66.9469 86.3714 66.076 86.3796 65.2053L139.508 65.0063C139.501 65.8066 139.483 66.6068 139.453 67.4071Z" fill="#D8DEE8"/>
<path d="M139.173 72.1038L85.9824 72.9303C86.0607 72.058 86.1281 71.186 86.1847 70.3141L139.343 69.7012C139.296 70.5017 139.239 71.3026 139.173 72.1038Z" fill="#D8DEE8"/>
<path d="M80.299 69.8822C80.2326 69.8836 80.168 69.8601 80.118 69.8162C79.5868 69.3287 79.0507 68.8404 78.5098 68.3514C78.486 68.3296 78.4671 68.303 78.4544 68.2733C78.4418 68.2436 78.4357 68.2115 78.4366 68.1792C78.4375 68.147 78.4454 68.1153 78.4596 68.0863C78.4739 68.0573 78.4942 68.0318 78.5192 68.0114C78.5706 67.9649 78.6371 67.9386 78.7064 67.9372C78.7757 67.9358 78.8432 67.9595 78.8964 68.0039C79.3704 68.4314 79.8406 68.8583 80.3071 69.2849C81.5709 67.9063 82.7999 66.5334 83.9939 65.1661C84.0401 65.1159 84.1028 65.0841 84.1705 65.0765C84.2383 65.0689 84.3065 65.086 84.3626 65.1246C84.3891 65.1425 84.4114 65.1659 84.428 65.1932C84.4447 65.2205 84.4553 65.251 84.4591 65.2828C84.463 65.3145 84.46 65.3467 84.4503 65.3771C84.4407 65.4076 84.4246 65.4356 84.4032 65.4594C83.1459 66.8964 81.8492 68.3394 80.5131 69.7884C80.4619 69.8436 80.3916 69.8773 80.3165 69.8827L80.299 69.8822Z" fill="#B8BCC1"/>
<path d="M82.682 83.3714L76.9692 83.5486C77.2502 81.8143 77.5064 80.0818 77.7377 78.3512L83.4373 78.2168C83.2129 79.9336 82.9611 81.6518 82.682 83.3714Z" fill="#D8DEE8"/>
<path d="M138.375 79.33L85.0371 80.7977C85.166 79.9217 85.2876 79.0462 85.402 78.1711L138.683 76.918C138.587 77.7214 138.484 78.5254 138.375 79.33Z" fill="#D8DEE8"/>
<path d="M137.68 84.0553L84.2153 85.9441C84.3656 85.064 84.5114 84.1858 84.6529 83.3095L138.051 81.6362C137.931 82.4424 137.808 83.2488 137.68 84.0553Z" fill="#D8DEE8"/>
<path d="M78.7869 82.9927C78.7551 82.9946 78.7231 82.9901 78.693 82.9793C78.663 82.9685 78.6354 82.9517 78.612 82.93C78.1273 82.45 77.6402 81.9698 77.1505 81.4892C77.0562 81.3991 77.0797 81.2459 77.1976 81.1474C77.3155 81.0488 77.4847 81.0422 77.5748 81.1323C78.0035 81.5528 78.43 81.9727 78.8544 82.392C80.2637 80.9814 81.651 79.5774 83.016 78.1799C83.1197 78.0739 83.2866 78.0522 83.3904 78.1328C83.4941 78.2134 83.4936 78.3619 83.3904 78.4675C81.9555 79.9366 80.4952 81.4126 79.0095 82.8956C78.9541 82.9509 78.8813 82.9854 78.8034 82.9932L78.7869 82.9927Z" fill="#B8BCC1"/>
<path d="M80.3016 96.5095L74.5474 96.8037C74.884 95.0539 75.2179 93.3065 75.5492 91.5615L81.2865 91.313C80.9622 93.0433 80.6339 94.7755 80.3016 96.5095Z" fill="#D8DEE8"/>
<path d="M136.459 91.3362L82.7666 93.876C82.9338 92.9924 83.0998 92.1095 83.2645 91.2273L136.879 88.9053C136.741 89.7153 136.601 90.5256 136.459 91.3362Z" fill="#D8DEE8"/>
<path d="M135.629 96.0976L81.7817 99.0646C81.9486 98.1789 82.1165 97.2934 82.2853 96.4083L136.053 93.6597C135.911 94.4722 135.77 95.2848 135.629 96.0976Z" fill="#D8DEE8"/>
<path d="M76.3943 96.2066C76.3628 96.2093 76.331 96.2054 76.301 96.195C76.2711 96.1847 76.2436 96.1683 76.2204 96.1467L74.806 94.7276C74.7173 94.6385 74.7447 94.4844 74.8668 94.383C74.9889 94.2816 75.16 94.2712 75.2491 94.3604L76.4858 95.6013C77.9555 94.1554 79.4171 92.7159 80.8705 91.2826C80.9817 91.1737 81.1505 91.1487 81.2476 91.226C81.3448 91.3033 81.3391 91.4547 81.2283 91.5631C79.7042 93.0696 78.1696 94.5829 76.6244 96.1029C76.5673 96.1592 76.4932 96.1951 76.4137 96.2052L76.3943 96.2066Z" fill="#B8BCC1"/>
<path d="M77.9359 109.741L72.1401 110.152C72.4164 108.394 72.7134 106.636 73.0312 104.878L78.8119 104.514C78.5026 106.256 78.2106 107.998 77.9359 109.741Z" fill="#D8DEE8"/>
<path d="M134.418 103.426L80.3457 107.053C80.4947 106.165 80.6479 105.276 80.8054 104.388L134.806 100.981C134.673 101.796 134.544 102.611 134.418 103.426Z" fill="#D8DEE8"/>
<path d="M133.738 108.206L79.5391 112.265C79.6648 111.376 79.7966 110.487 79.9346 109.598L134.072 105.759C133.955 106.576 133.844 107.392 133.738 108.206Z" fill="#D8DEE8"/>
<path d="M73.9832 109.517C73.9513 109.52 73.9192 109.517 73.8887 109.507C73.8582 109.497 73.83 109.482 73.8059 109.46C73.3146 108.997 72.8246 108.533 72.3359 108.067C72.2416 107.98 72.2675 107.825 72.3891 107.721C72.5108 107.617 72.6824 107.603 72.7738 107.691C73.2001 108.097 73.627 108.503 74.0548 108.909C75.4931 107.432 76.9377 105.959 78.3886 104.492C78.4989 104.38 78.6715 104.35 78.7705 104.427C78.8695 104.504 78.8648 104.654 78.7544 104.766C77.2344 106.306 75.7199 107.853 74.2109 109.409C74.1547 109.466 74.0811 109.503 74.0016 109.515L73.9832 109.517Z" fill="#B8BCC1"/>
<path d="M76.4623 122.985L70.6406 123.513C70.739 121.761 70.8804 120.007 71.0649 118.249L76.8791 117.767C76.6981 119.509 76.5566 121.249 76.4623 122.985Z" fill="#D8DEE8"/>
<path d="M132.981 115.544L78.6401 120.265C78.7109 119.377 78.7923 118.489 78.8844 117.601L133.186 113.101C133.109 113.916 133.041 114.73 132.981 115.544Z" fill="#D8DEE8"/>
<path d="M132.741 120.309L78.3564 125.458C78.38 124.574 78.4168 123.689 78.4668 122.803L132.834 117.874C132.793 118.686 132.762 119.498 132.741 120.309Z" fill="#D8DEE8"/>
<path d="M72.4384 122.845C72.3722 122.852 72.3057 122.833 72.2531 122.792C71.71 122.342 71.1697 121.891 70.6322 121.438C70.5304 121.353 70.5408 121.198 70.6539 121.092C70.7671 120.986 70.9401 120.969 71.0405 121.054C71.5082 121.45 71.9783 121.845 72.4507 122.239C73.7623 120.741 75.0955 119.245 76.4502 117.754C76.5525 117.641 76.7231 117.609 76.8311 117.682C76.9391 117.756 76.9429 117.907 76.841 118.02C75.4257 119.587 74.0312 121.157 72.6577 122.732C72.6054 122.791 72.5342 122.83 72.4564 122.842L72.4384 122.845Z" fill="#B8BCC1"/>
<path d="M76.7586 136.092L70.942 136.735C70.7447 135.014 70.6138 133.285 70.5493 131.549L76.3724 130.951C76.4384 132.672 76.5671 134.385 76.7586 136.092Z" fill="#D8DEE8"/>
<path d="M132.886 127.576L78.5284 133.375C78.463 132.5 78.4137 131.624 78.3804 130.746L132.762 125.164C132.789 125.969 132.831 126.773 132.886 127.576Z" fill="#D8DEE8"/>
<path d="M133.381 132.263L79.1149 138.475C78.9791 137.61 78.8621 136.742 78.7637 135.872L133.086 129.871C133.168 130.67 133.266 131.468 133.381 132.263Z" fill="#D8DEE8"/>
<path d="M72.6559 136.04C72.5868 136.048 72.5172 136.031 72.4593 135.993C71.8332 135.562 71.2115 135.13 70.5942 134.697C70.5669 134.679 70.5441 134.655 70.5273 134.627C70.5105 134.599 70.5002 134.567 70.4971 134.535C70.494 134.502 70.4982 134.469 70.5093 134.438C70.5205 134.408 70.5384 134.38 70.5616 134.357C70.6101 134.305 70.6753 134.271 70.7459 134.263C70.8164 134.254 70.8878 134.271 70.9473 134.31C71.4845 134.689 72.0248 135.067 72.5682 135.444C73.6529 133.944 74.7755 132.444 75.9359 130.945C75.9794 130.889 76.0411 130.851 76.1101 130.836C76.1791 130.822 76.251 130.832 76.3131 130.866C76.3411 130.882 76.3651 130.904 76.3836 130.93C76.4022 130.957 76.4146 130.987 76.4201 131.019C76.4257 131.051 76.4242 131.083 76.4157 131.114C76.4072 131.145 76.392 131.174 76.3711 131.199C75.161 132.773 73.9909 134.347 72.861 135.923C72.8161 135.984 72.7494 136.024 72.6752 136.036L72.6559 136.04Z" fill="#B8BCC1"/>
<circle cx="140" cy="41" r="18" fill="#4CD964"/>
<path d="M148 36L137 47L132 42" stroke="white" stroke-width="2" stroke-linecap="round" stroke-linejoin="round"/>
<defs>
<linearGradient id="paint0_linear_1044:1010" x1="54.9983" y1="102.221" x2="136.781" y2="102.221" gradientUnits="userSpaceOnUse">
<stop stop-color="#FFC444"/>
<stop offset="1" stop-color="#F36F56"/>
</linearGradient>
<linearGradient id="paint1_linear_1044:1010" x1="52081.7" y1="220743" x2="171658" y2="220743" gradientUnits="userSpaceOnUse">
<stop stop-color="#FFC444"/>
<stop offset="1" stop-color="#F36F56"/>
</linearGradient>
</defs>
</svg>
