<svg width="313" height="188" viewBox="0 0 313 188" fill="none" xmlns="http://www.w3.org/2000/svg">
<path d="M73.9779 21.3951C63.7507 25.0374 54.0783 29.3912 45.226 34.5048C42.3556 36.1571 39.6178 37.8696 37.0249 39.6184L72.3136 59.9884C75.7629 61.9784 75.7629 66.9593 72.3136 68.9493L0.325089 110.509C2.6045 120.93 7.97136 131.181 16.4378 140.769L104.913 89.6932C110.75 86.3283 117.938 86.3283 123.763 89.6932L261.662 169.304C264.689 167.796 267.68 166.24 270.55 164.588C279.403 159.475 286.977 153.903 293.284 148.005L73.9779 21.3951Z" fill="#85787C"/>
<path d="M7.34424 122.075L10.2025 123.728L20.6227 117.721L17.7523 116.069L7.34424 122.075Z" fill="url(#paint0_linear)"/>
<path d="M23.8067 112.572L26.6771 114.224L37.0852 108.206L34.2268 106.554L23.8067 112.572Z" fill="url(#paint1_linear)"/>
<path d="M40.2812 103.056L43.1395 104.708L53.5596 98.7023L50.6893 97.05L40.2812 103.056Z" fill="url(#paint2_linear)"/>
<path d="M56.7436 93.5525L59.614 95.2047L70.0221 89.1987L67.1638 87.5464L56.7436 93.5525Z" fill="url(#paint3_linear)"/>
<path d="M73.2181 84.0368L76.0885 85.7012L86.4966 79.683L83.6263 78.0307L73.2181 84.0368Z" fill="url(#paint4_linear)"/>
<path d="M89.6926 74.5332L92.5509 76.1855L102.959 70.1794L100.101 68.5271L89.6926 74.5332Z" fill="url(#paint5_linear)"/>
<path d="M107.373 65.2708L108.615 66.7904C108.905 67.1522 109.387 67.3091 109.833 67.2005C111.594 66.7905 113.488 66.5734 115.381 66.5734C117.287 66.5734 119.18 66.7784 120.941 67.1884C121.399 67.297 121.882 67.1402 122.171 66.7663L123.353 65.2588C120.845 64.5955 118.095 64.2457 115.345 64.2457C112.607 64.2457 109.858 64.5955 107.373 65.2708Z" fill="url(#paint6_linear)"/>
<path d="M127.888 70.1432L138.368 76.1976L141.215 74.5453L130.734 68.503L127.888 70.1432Z" fill="url(#paint7_linear)"/>
<path d="M144.459 79.7071L154.939 85.7614L157.786 84.1213L147.305 78.0669L144.459 79.7071Z" fill="url(#paint8_linear)"/>
<path d="M161.03 89.2831L171.51 95.3253L174.357 93.6851L163.888 87.6429L161.03 89.2831Z" fill="url(#paint9_linear)"/>
<path d="M177.613 98.847L188.081 104.901L190.928 103.249L180.459 97.2068L177.613 98.847Z" fill="url(#paint10_linear)"/>
<path d="M194.184 108.423L204.652 114.465L207.499 112.825L197.03 106.771L194.184 108.423Z" fill="url(#paint11_linear)"/>
<path d="M210.755 117.987L221.223 124.029L224.082 122.389L213.601 116.347L210.755 117.987Z" fill="url(#paint12_linear)"/>
<path d="M227.326 127.551L237.806 133.605L240.653 131.953L230.172 125.911L227.326 127.551Z" fill="url(#paint13_linear)"/>
<path d="M246.743 135.474L243.897 137.127L254.377 143.169L257.224 141.529L246.743 135.474Z" fill="url(#paint14_linear)"/>
<path d="M217.099 52.3662L201.987 43.4777L221.115 33.0696L222.659 52.3662H217.099Z" fill="#DFE4EB"/>
<path d="M241.798 30.6334V41.9581L222.658 52.3662V41.0415L241.798 30.6334Z" fill="#EDF4FF"/>
<path d="M222.658 41.0415V52.3662L207.547 43.4777V32.153L222.658 41.0415Z" fill="#DDE7F8"/>
<path d="M222.671 41.0415L207.547 32.153L226.675 21.7449L241.798 30.6334L222.671 41.0415Z" fill="#EBF4FF"/>
<path d="M248.239 68.9372L226.904 56.3944L253.895 41.7048L253.786 68.9372H248.239Z" fill="#DFE4EB"/>
<path d="M280.79 30.4525V54.2476L253.786 68.9372V45.1421L280.79 30.4525Z" fill="#EDF4FF"/>
<path d="M253.786 45.1421V68.9372L232.464 56.3944V32.6113L253.786 45.1421Z" fill="#DDE7F8"/>
<path d="M253.798 45.1541L232.464 32.6113L259.455 17.9097L280.79 30.4525L253.798 45.1541Z" fill="#EBF4FF"/>
<path d="M277.907 78.1152L262.795 69.2267L281.923 58.8185L283.467 78.1152H277.907Z" fill="#DFE4EB"/>
<path d="M302.595 56.3824V67.707L283.467 78.1152V66.7904L302.595 56.3824Z" fill="#EDF4FF"/>
<path d="M283.467 66.7904V78.1152L268.355 69.2267V57.914L283.467 66.7904Z" fill="#DDE7F8"/>
<path d="M283.467 66.8025L268.355 57.914L287.483 47.4938L302.595 56.3823L283.467 66.8025Z" fill="#EBF4FF"/>
<path d="M107.711 30.766L94.1308 22.77L111.329 13.4232L113.271 30.766H107.711Z" fill="#DFE4EB"/>
<path d="M130.469 7.98398V21.4072L113.271 30.766V17.3428L130.469 7.98398Z" fill="#EDF4FF"/>
<path d="M113.271 17.3428V30.766L99.6907 22.77V9.35884L113.271 17.3428Z" fill="#DDE7F8"/>
<path d="M113.283 17.3428L99.6907 9.35884L116.889 0L130.469 7.98398L113.283 17.3428Z" fill="#EBF4FF"/>
<path d="M162.079 27.4374L151.767 21.3831L164.817 14.2795L167.639 27.7389L162.079 27.4374Z" fill="#DFE4EB"/>
<path d="M180.688 6.27138V20.6353L167.639 27.7389V13.375L180.688 6.27138Z" fill="#EDF4FF"/>
<path d="M167.639 13.375V27.7389L157.327 21.6725V7.30859L167.639 13.375Z" fill="#DDE7F8"/>
<path d="M167.639 13.375L157.327 7.30859L170.377 0.205002L180.688 6.27138L167.639 13.375Z" fill="#EBF4FF"/>
<path d="M295.95 96.5193L282.37 88.5233L293.453 82.4931L301.509 96.5193H295.95Z" fill="#DFE4EB"/>
<path d="M312.593 83.7715V90.4891L301.509 96.5193V89.8017L312.593 83.7715Z" fill="#EDF4FF"/>
<path d="M301.509 89.8017V96.5193L287.929 88.5233V81.8056L301.509 89.8017Z" fill="#DDE7F8"/>
<path d="M301.521 89.8017L287.929 81.8177L299.013 75.7754L312.605 83.7715L301.521 89.8017Z" fill="#EBF4FF"/>
<path d="M286.386 123.836L272.794 115.852L291.029 105.926L291.945 123.836H286.386Z" fill="#DFE4EB"/>
<path d="M310.181 107.205V113.922L291.945 123.836V117.118L310.181 107.205Z" fill="#EDF4FF"/>
<path d="M291.945 117.118V123.836L278.365 115.852V109.135L291.945 117.118Z" fill="#DDE7F8"/>
<path d="M291.945 117.118L278.365 109.135L296.601 99.2088L310.181 107.205L291.945 117.118Z" fill="#EBF4FF"/>
<path d="M195.426 30.8505L181.846 22.8665L192.93 16.8363L200.986 30.8505H195.426Z" fill="#DFE4EB"/>
<path d="M212.069 18.1026V24.8203L200.986 30.8505V24.1328L212.069 18.1026Z" fill="#EDF4FF"/>
<path d="M200.986 24.1328V30.8505L187.406 22.8665V16.1488L200.986 24.1328Z" fill="#DDE7F8"/>
<path d="M200.998 24.1328L187.406 16.1488L198.489 10.1187L212.082 18.1026L200.998 24.1328Z" fill="#EBF4FF"/>
<path d="M174.176 51.7511L141.444 32.5148L156.966 24.0605L189.697 43.3088L174.176 51.7511Z" fill="#DFE4EB"/>
<path d="M195.257 36.5912V45.7812L179.736 54.2235V45.0335L195.257 36.5912Z" fill="#EDF4FF"/>
<path d="M179.736 45.0335V54.2235L147.004 34.9751V25.7972L179.736 45.0335Z" fill="#DDE7F8"/>
<path d="M179.736 45.0335L147.004 25.7972L162.525 17.3428L195.257 36.5912L179.736 45.0335Z" fill="#EBF4FF"/>
<path d="M261.794 107.711L225.288 86.6298L240.628 77.7775L267.354 107.711H261.794Z" fill="#DFE4EB"/>
<path d="M282.695 82.4207V98.8591L267.354 107.711V91.2731L282.695 82.4207Z" fill="#EDF4FF"/>
<path d="M267.354 91.2731V107.711L230.847 86.6298V70.1915L267.354 91.2731Z" fill="#DDE7F8"/>
<path d="M267.354 91.2731L230.847 70.1915L246.188 61.3392L282.695 82.4207L267.354 91.2731Z" fill="#EBF4FF"/>
<path d="M210.357 81.3594L185.332 66.899L201.492 57.5884L215.917 81.3232L210.357 81.3594Z" fill="#DFE4EB"/>
<path d="M232.078 60.7361V72.0126L215.917 81.3232V70.0468L232.078 60.7361Z" fill="#EDF4FF"/>
<path d="M215.917 70.0468V81.3232L190.891 66.8749V55.5984L215.917 70.0468Z" fill="#DDE7F8"/>
<path d="M215.929 70.0588L190.891 55.5984L207.052 46.2878L232.078 60.7361L215.929 70.0588Z" fill="#EBF4FF"/>
<path d="M273.24 152.009C270.478 153.601 265.991 153.601 263.206 151.997C260.432 150.393 260.407 147.8 263.169 146.208C265.931 144.616 270.418 144.616 273.204 146.232C275.99 147.812 276.002 150.405 273.24 152.009Z" fill="url(#paint15_linear)"/>
<path d="M273.3 85.4479L273.288 85.46C270.779 84.4228 267.523 84.7846 263.953 86.8469C256.066 91.3937 249.674 102.417 249.674 111.462C249.674 123.776 263.953 137.778 263.953 137.778L268.199 139.876L277.618 87.5946L273.3 85.4479Z" fill="#FF4C4A"/>
<path d="M268.211 88.9333C276.098 84.3866 282.49 88.0288 282.49 97.0741C282.49 109.388 268.211 139.876 268.211 139.876C268.211 139.876 253.931 125.874 253.931 113.561C253.931 104.515 260.323 93.4922 268.211 88.9333Z" fill="#FF4C4A"/>
<path d="M274.023 108.713C277.273 103.152 277.307 97.1241 274.099 95.2483C270.89 93.3725 265.654 96.3595 262.403 101.92C259.152 107.48 259.118 113.509 262.327 115.385C265.535 117.26 270.772 114.273 274.023 108.713Z" fill="#FCFBFA"/>
<path d="M255.065 114.031C255.065 105.191 261.3 94.4329 269.007 89.9826C276.629 85.5806 282.333 88.8127 282.466 97.4359C282.466 97.3153 282.478 97.1827 282.478 97.0741C282.478 88.0288 276.086 84.3866 268.199 88.9333C260.311 93.4801 253.919 104.503 253.919 113.549C253.919 125.862 268.199 139.864 268.199 139.864C268.199 139.876 255.065 126.055 255.065 114.031Z" fill="#FF8685"/>
<path d="M143.265 61.5562L241.69 118.397L208.427 137.597L110.014 80.7685L143.265 61.5562Z" fill="#BFB5BF"/>
<path d="M129.227 85.3273L133.689 81.8901L149.512 93.0098L187.563 119L192.507 116.033L205.714 124.403L199.599 107.446L129.42 72.5915L129.227 85.3273Z" fill="#0F0E1B"/>
<path d="M207.812 124.174C207.812 119.856 204.761 114.598 201.01 112.427C199.141 111.342 197.44 111.233 196.21 111.933C196.198 111.933 196.186 111.945 196.186 111.945L191.892 114.429V117.758L201.553 131.012L205.581 128.672C205.774 128.588 205.955 128.479 206.124 128.359C207.161 127.599 207.812 126.164 207.812 124.174Z" fill="#23222D"/>
<path d="M148.994 90.2117C148.994 85.8941 145.942 80.6358 142.192 78.4649C140.202 77.3192 138.417 77.2589 137.174 78.1031L132.917 80.5634L135.799 85.267C136.547 88.065 138.272 90.8871 140.407 92.7806L142.939 96.9173L146.678 94.7344C146.919 94.6258 147.148 94.4932 147.353 94.3364C148.366 93.5766 148.994 92.1535 148.994 90.2117Z" fill="#23222D"/>
<path d="M238.072 97.1947V109.219L232.934 106.252C231.583 101.898 228.484 97.9304 224.878 95.844C220.029 93.046 219.366 96.3022 216.64 101.163C216.423 101.549 216.11 102.513 216.11 102.513L175.285 78.9473C175.297 78.4288 175.297 77.874 175.297 77.2951C175.297 71.7352 171.366 61.9422 166.517 59.1442C161.669 56.3461 157.737 58.5894 157.737 64.1492C157.737 64.7402 157.749 65.295 157.774 65.8256L144.76 58.312V15.0875L224.287 61.0015L228.978 86.1474L238.072 97.1947Z" fill="#E4DFD9"/>
<path d="M232.15 110.123C232.15 114.441 229.099 116.178 225.348 114.007C221.585 111.836 218.546 106.578 218.546 102.26C218.546 97.9425 221.597 96.2058 225.348 98.3766C229.099 100.548 232.15 105.806 232.15 110.123Z" fill="#2D2C37"/>
<path d="M173.331 76.1614C173.331 80.479 170.28 82.2157 166.529 80.0449C162.767 77.874 159.727 69.6126 159.727 65.295C159.727 60.9774 162.779 59.2407 166.529 61.4115C170.28 63.5824 173.331 71.8438 173.331 76.1614Z" fill="#2D2C37"/>
<path d="M171.257 74.9674C171.257 77.9704 169.134 79.1765 166.529 77.669C163.912 76.1614 161.802 69.5041 161.802 66.501C161.802 63.498 163.924 62.292 166.529 63.7995C169.134 65.3071 171.257 71.9644 171.257 74.9674Z" fill="#504F58"/>
<path d="M170.811 74.7021C170.811 77.4157 168.893 78.5132 166.529 77.1504C164.166 75.7875 162.248 69.4679 162.248 66.7543C162.248 64.0407 164.166 62.9432 166.529 64.306C168.893 65.6688 170.811 71.9885 170.811 74.7021Z" fill="#C2C7D6"/>
<path d="M170.377 74.4609C170.377 76.9091 168.652 77.886 166.517 76.6559C164.383 75.4257 162.658 69.4438 162.658 66.9955C162.658 64.5472 164.383 63.5703 166.517 64.8005C168.652 66.0307 170.377 72.0126 170.377 74.4609Z" fill="#A5ACC2"/>
<path d="M168.893 70.5895C168.893 72.085 167.832 75.7031 166.529 74.9433C165.227 74.1835 164.166 69.3593 164.166 67.8518C164.166 66.3563 165.227 65.7533 166.529 66.501C167.832 67.2608 168.893 69.094 168.893 70.5895Z" fill="#CFD9E7"/>
<path d="M230.076 108.917C230.076 111.92 227.953 113.127 225.348 111.619C222.731 110.111 220.62 106.457 220.62 103.466C220.62 100.475 222.743 99.257 225.348 100.765C227.953 102.272 230.076 105.926 230.076 108.917Z" fill="#504F58"/>
<path d="M229.629 108.664C229.629 111.378 227.712 112.475 225.348 111.112C222.984 109.75 221.067 106.433 221.067 103.719C221.067 101.006 222.984 99.9083 225.348 101.271C227.712 102.646 229.629 105.951 229.629 108.664Z" fill="#B5BBCD"/>
<path d="M228.628 108.085C228.628 110.172 227.157 111.004 225.348 109.955C223.539 108.905 222.067 106.373 222.067 104.286C222.067 102.2 223.539 101.368 225.348 102.417C227.157 103.466 228.628 106.011 228.628 108.085Z" fill="#CFD9E7"/>
<path d="M227.133 107.229C227.133 108.363 226.325 108.821 225.336 108.254C224.347 107.687 223.539 106.3 223.539 105.167C223.539 104.033 224.347 103.575 225.336 104.142C226.337 104.708 227.133 106.095 227.133 107.229Z" fill="#E1E7EF"/>
<path d="M226.325 106.759C226.325 107.374 225.891 107.627 225.348 107.313C224.805 107 224.371 106.252 224.371 105.637C224.371 105.022 224.805 104.769 225.348 105.082C225.879 105.384 226.325 106.131 226.325 106.759Z" fill="#C2C7D6"/>
<path d="M239.459 113.898L210.779 126.477L205.979 124.837L202.988 123.1L233.561 105.444L238.265 108.158L239.459 109.918V113.898Z" fill="#6B6164"/>
<path d="M223.768 59.2648L145.424 14.0262L144.76 15.0996L224.299 61.0135L223.768 59.2648Z" fill="#F3F1EE"/>
<path d="M202.783 76.6197L145.978 43.8275V42.1752L202.783 74.9674V76.6197Z" fill="#98979D"/>
<path d="M203.543 93.6007V53.922L219.921 63.3774V89.7896L214.53 99.9565L203.543 93.6007Z" fill="#CDC6BC"/>
<path d="M224.648 66.1151L220.958 63.9804V84.869L226.421 88.0288L227.977 85.5082L224.648 66.1151Z" fill="#2D2C37"/>
<path d="M221.452 84.5916V64.8246L224.275 66.4528L227.446 85.1464L226.132 87.2931L221.452 84.5916Z" fill="#7572A4"/>
<path d="M216.11 101.356L202.783 93.6731V94.8309L216.11 102.525V101.356Z" fill="#9B897F"/>
<path d="M144.76 57.1663L140.093 54.4647V55.6346L144.76 58.3241V57.1663Z" fill="#9B897F"/>
<path d="M236.6 101.573L234.647 100.439V98.1957L236.6 99.3294V101.573Z" fill="#504F58"/>
<path d="M236.443 101.283L234.815 100.355V98.4852L236.443 99.4259V101.283Z" fill="#FF9A2E"/>
<path d="M148.969 49.5562C148.969 50.2436 148.475 50.533 147.872 50.1833C147.269 49.8335 146.774 48.9893 146.774 48.3019C146.774 47.6144 147.269 47.325 147.872 47.6747C148.475 48.0124 148.969 48.8687 148.969 49.5562Z" fill="#504F58"/>
<path d="M148.74 49.4235C148.74 49.9783 148.354 50.1954 147.872 49.918C147.39 49.6406 147.004 48.9773 147.004 48.4225C147.004 47.8677 147.39 47.6506 147.872 47.928C148.354 48.2054 148.74 48.8808 148.74 49.4235Z" fill="#FF512E"/>
<path d="M148.487 53.5361C148.487 54.0064 148.149 54.1994 147.739 53.9582C147.329 53.717 146.992 53.1502 146.992 52.6798C146.992 52.2094 147.329 52.0165 147.739 52.2577C148.161 52.4868 148.487 53.0657 148.487 53.5361Z" fill="#F9F1EC"/>
<path d="M148.379 53.4758C148.379 53.8738 148.101 54.0306 147.751 53.8376C147.402 53.6326 147.124 53.1502 147.124 52.7522C147.124 52.3542 147.402 52.1974 147.751 52.3903C148.101 52.5833 148.379 53.0657 148.379 53.4758Z" fill="#FF9A2E"/>
<path d="M178.807 74.0508C178.807 74.5212 178.469 74.7142 178.059 74.473C177.649 74.2317 177.311 73.6649 177.311 73.1945C177.311 72.7242 177.649 69.5282 178.059 69.7573C178.469 69.9865 178.807 73.5805 178.807 74.0508Z" fill="#F9F1EC"/>
<path d="M178.698 73.9785C178.698 74.3765 178.421 74.5332 178.071 74.3403C177.721 74.1352 177.444 73.6528 177.444 73.2548C177.444 72.8568 177.721 72.7 178.071 72.893C178.409 73.098 178.698 73.5805 178.698 73.9785Z" fill="#FF9A2E"/>
<path d="M201.095 83.9041C201.095 84.3745 200.757 84.5675 200.347 84.3263C199.937 84.0851 199.599 83.5182 199.599 83.0479C199.599 82.5775 199.937 82.3845 200.347 82.6257C200.757 82.8549 201.095 83.4338 201.095 83.9041Z" fill="#F9F1EC"/>
<path d="M200.974 83.8318C200.974 84.2298 200.697 84.3866 200.347 84.1936C199.997 83.9886 199.72 83.5062 199.72 83.1082C199.72 82.7102 199.997 82.5534 200.347 82.7464C200.697 82.9514 200.974 83.4338 200.974 83.8318Z" fill="#FF9A2E"/>
<path d="M149.548 19.6826L147.004 18.2112V17.0775L149.548 18.5489V19.6826Z" fill="#CDC6BC"/>
<path d="M149.319 19.3449L147.233 18.1388V17.3066L149.319 18.5127V19.3449Z" fill="#FF9A2E"/>
<path d="M181.231 37.9782L178.698 36.5068V35.3731L181.231 36.8445V37.9782Z" fill="#CDC6BC"/>
<path d="M181.014 37.6405L178.915 36.4345V35.6023L181.014 36.8083V37.6405Z" fill="#FF9A2E"/>
<path d="M221.187 61.0377L218.654 59.5784V58.4447L221.187 59.916V61.0377Z" fill="#CDC6BC"/>
<path d="M220.97 60.712L218.872 59.506V58.6618L220.97 59.8799V60.712Z" fill="#FF9A2E"/>
<path d="M167.108 49.5682C166.71 49.5682 166.276 49.4476 165.842 49.1944L149.826 39.9441C148.186 38.9913 146.847 36.4586 146.847 34.2877V25.1459C146.847 23.9519 147.257 23.0233 147.956 22.6133C148.559 22.2635 149.307 22.3238 150.079 22.758L166.095 32.0083C167.735 32.9611 169.074 35.4938 169.074 37.6646V46.8064C169.074 48.0004 168.664 48.929 167.965 49.3391C167.711 49.4838 167.422 49.5682 167.108 49.5682ZM166.107 48.724C166.71 49.0738 167.277 49.122 167.699 48.8687C168.242 48.5552 168.556 47.8074 168.556 46.7943V37.6526C168.556 35.6506 167.337 33.3108 165.842 32.4425L149.826 23.1921C149.235 22.8424 148.656 22.7942 148.234 23.0474C147.691 23.361 147.377 24.1087 147.377 25.1218V34.2636C147.377 36.2656 148.596 38.6054 150.091 39.4616L166.107 48.724Z" fill="#CDC6BC"/>
<path d="M192.025 63.9563C191.627 63.9563 191.193 63.8357 190.759 63.5824L174.742 54.3321C173.102 53.3793 171.764 50.8466 171.764 48.6758V39.534C171.764 38.34 172.174 37.4114 172.873 37.0013C173.476 36.6516 174.224 36.7119 174.996 37.146L191.012 46.3964C192.652 47.3491 193.991 49.8818 193.991 52.0527V61.1945C193.991 62.3884 193.581 63.3171 192.881 63.7272C192.628 63.8719 192.339 63.9563 192.025 63.9563ZM173.754 37.3028C173.536 37.3028 173.331 37.3511 173.151 37.4596C172.608 37.7732 172.294 38.5209 172.294 39.534V48.6758C172.294 50.6778 173.512 53.0175 175.008 53.8738L191.024 63.1241C191.627 63.4739 192.194 63.5221 192.616 63.2689C193.159 62.9553 193.472 62.2075 193.472 61.1945V52.0527C193.472 50.0506 192.254 47.7109 190.759 46.8546L174.742 37.6043C174.405 37.3993 174.067 37.3028 173.754 37.3028Z" fill="#CDC6BC"/>
<path d="M215.772 81.878L206.968 73.7855C206.039 73.2428 205.279 71.8076 205.279 70.5654V58.5773C205.279 57.3351 206.039 56.7683 206.968 57.2989L215.772 62.3764C216.701 62.9191 217.46 64.3543 217.46 65.5965V80.5876C217.46 81.8418 216.701 82.4087 215.772 81.878Z" fill="#2D2C37"/>
<path d="M205.774 70.9392V58.7703C205.774 57.8899 206.305 57.4799 206.968 57.8658L215.772 62.9432C216.435 63.3291 216.966 64.3422 216.966 65.2226V80.3946C216.966 81.275 216.435 81.6851 215.772 81.2991L206.968 73.2066C206.305 72.8327 205.774 71.8197 205.774 70.9392Z" fill="#7572A4"/>
<path d="M209.681 92.0932L206.968 90.5253C206.039 89.9826 205.279 85.5323 205.279 84.2901V76.6559C205.279 75.4137 206.039 74.8468 206.968 75.3775L209.681 76.9453C210.61 77.488 211.37 78.9232 211.37 80.1655V90.8027C211.37 92.0691 210.61 92.6359 209.681 92.0932Z" fill="#2D2C37"/>
<path d="M205.774 84.6761V76.8609C205.774 75.9805 206.305 75.5705 206.968 75.9564L209.681 77.5243C210.345 77.9102 210.875 78.9232 210.875 79.8037V90.6218C210.875 91.5022 210.345 91.9123 209.681 91.5264L206.968 89.9585C206.305 89.5847 205.774 85.5565 205.774 84.6761Z" fill="#7572A4"/>
<path d="M223.467 106.228C223.672 106.855 223.865 107.181 224.299 107.699C224.455 107.88 224.552 108.133 224.504 108.29C224.455 108.447 224.226 108.399 224.021 108.158C223.575 107.651 223.117 106.855 222.924 106.216C222.827 105.914 222.912 105.709 223.069 105.758C223.225 105.782 223.394 105.999 223.467 106.228Z" fill="#504F58"/>
<path d="M227.217 106.156C227.012 105.528 226.819 105.203 226.385 104.684C226.228 104.503 226.132 104.25 226.18 104.093C226.228 103.936 226.457 103.985 226.662 104.226C227.109 104.732 227.567 105.528 227.76 106.168C227.856 106.469 227.772 106.674 227.615 106.626C227.458 106.602 227.29 106.385 227.217 106.156Z" fill="#504F58"/>
<path d="M226.313 108.905C226.759 108.917 226.952 108.821 227.169 108.459C227.253 108.326 227.422 108.314 227.579 108.459C227.736 108.604 227.808 108.905 227.7 109.074C227.483 109.46 227.012 109.713 226.554 109.677C226.349 109.665 226.12 109.448 226.084 109.243C226.06 109.026 226.156 108.905 226.313 108.905Z" fill="#504F58"/>
<path d="M224.371 103.478C223.925 103.466 223.732 103.563 223.515 103.924C223.43 104.057 223.261 104.069 223.105 103.924C222.948 103.78 222.876 103.478 222.984 103.309C223.201 102.923 223.672 102.67 224.13 102.706C224.335 102.718 224.564 102.935 224.6 103.141C224.636 103.358 224.528 103.49 224.371 103.478Z" fill="#504F58"/>
<path d="M227.507 97.6892H227.241L227.253 90.1273L228.858 86.1112L229.111 86.2077L227.507 90.2118V97.6892Z" fill="#C9C3B9"/>
<path d="M237.975 99.2691L228.086 88.258L228.279 88.0771L238.168 99.0882L237.975 99.2691Z" fill="#C9C3B9"/>
<path d="M116.213 76.9815L111.546 74.28L117.094 71.0839L121.761 73.7734L116.213 76.9815Z" fill="#6B6164"/>
<path d="M209.525 113.681V125.705L204.387 122.739C203.036 118.385 199.937 114.417 196.331 112.331C191.482 109.533 190.819 112.789 188.093 117.649C187.876 118.035 187.563 119 187.563 119L146.738 95.4339C146.75 94.9153 146.75 94.3605 146.75 93.7816C146.75 88.2218 142.819 81.4438 137.97 78.6458C133.122 75.8478 129.19 78.091 129.19 83.6509C129.19 84.2419 129.202 84.7966 129.227 85.3273L116.213 77.8137V31.5741L195.74 77.488L200.431 102.634L209.525 113.681Z" fill="#DED8D1"/>
<path d="M119.988 69.7573C119.988 70.3121 119.602 70.5292 119.12 70.2518C118.638 69.9744 118.252 69.3111 118.252 68.7563C118.252 68.2015 118.638 67.9844 119.12 68.2618C119.602 68.5392 119.988 69.2025 119.988 69.7573Z" fill="#CDC6BC"/>
<path d="M173.5 96.9414L116.708 64.1492V62.509L117.432 61.6768L173.5 95.3012L174.236 96.1093L173.5 96.9414Z" fill="#CDC6BC"/>
<path d="M207.197 118.397L205.882 117.649V116.142L206.268 114.972L207.885 117.77L207.197 118.397Z" fill="#B5AA9C"/>
<path d="M203.603 126.61C203.603 130.928 200.552 132.664 196.801 130.493C193.038 128.323 189.999 123.064 189.999 118.747C189.999 114.429 193.05 112.692 196.801 114.863C200.552 117.034 203.603 122.292 203.603 126.61Z" fill="#2D2C37"/>
<path d="M203.603 126.61C203.603 130.928 200.552 132.664 196.801 130.493C193.038 128.323 189.999 123.064 189.999 118.747C189.999 114.429 193.05 112.692 196.801 114.863C200.552 117.034 203.603 122.292 203.603 126.61Z" fill="#393843"/>
<path d="M203.181 126.526C203.181 130.674 200.25 132.351 196.632 130.264C193.014 128.178 190.083 123.125 190.083 118.964C190.083 114.815 193.014 113.139 196.632 115.225C200.25 117.324 203.181 122.377 203.181 126.526Z" fill="#2D2C37"/>
<path d="M144.784 92.6479C144.784 96.9656 141.733 98.7023 137.982 96.5314C134.22 94.3605 131.18 89.1022 131.18 84.7846C131.18 80.467 134.232 78.7303 137.982 80.9011C141.733 83.072 144.784 88.3303 144.784 92.6479Z" fill="#393843"/>
<path d="M144.097 92.5635C144.097 96.7123 141.166 98.3887 137.548 96.3022C133.93 94.2158 130.999 89.1625 130.999 85.0017C130.999 80.8529 133.93 79.1765 137.548 81.2629C141.166 83.3614 144.097 88.4148 144.097 92.5635Z" fill="#2D2C37"/>
<path d="M142.577 91.5384C142.577 94.5414 140.455 95.7475 137.85 94.2399C135.233 92.7324 133.122 89.0781 133.122 86.0871C133.122 83.0961 135.245 81.878 137.85 83.3856C140.467 84.8931 142.577 88.5474 142.577 91.5384Z" fill="#504F58"/>
<path d="M142.264 91.1886C142.264 93.9022 140.346 94.9997 137.982 93.6369C135.619 92.2741 133.701 88.9574 133.701 86.2439C133.701 83.5303 135.619 82.4328 137.982 83.7956C140.346 85.1584 142.264 88.475 142.264 91.1886Z" fill="#C4C2BB"/>
<path d="M141.83 90.9354C141.83 93.3836 140.105 94.3605 137.97 93.1304C135.836 91.9002 134.111 88.9213 134.111 86.4851C134.111 84.0368 135.836 83.0599 137.97 84.2901C138.163 84.3986 138.356 84.5313 138.549 84.664C140.214 85.9062 141.528 88.1736 141.781 90.2238C141.818 90.465 141.83 90.7062 141.83 90.9354Z" fill="#B0AC9E"/>
<path d="M139.369 92.1414C137.355 90.9836 135.715 88.1615 135.715 85.8459C135.715 84.9052 135.98 84.2057 136.439 83.7715C135.076 83.663 134.123 84.676 134.123 86.4851C134.123 88.9334 135.848 91.9002 137.982 93.1304C139.538 94.0229 140.865 93.7454 141.48 92.5876C140.877 92.7324 140.153 92.5997 139.369 92.1414Z" fill="#B7B4A9"/>
<path d="M141.601 90.5133C141.601 92.0088 140.539 92.6118 139.237 91.864C137.934 91.1042 136.873 89.2831 136.873 87.7876C136.873 86.2921 137.934 85.6891 139.237 86.4369C140.551 87.1846 141.601 89.0057 141.601 90.5133Z" fill="#CDC6BC"/>
<path d="M141.781 90.2238C141.371 90.8148 140.612 90.9233 139.719 90.4168C138.417 89.657 137.355 87.8359 137.355 86.3404C137.355 85.3394 137.838 84.7363 138.537 84.676C140.214 85.9183 141.528 88.1736 141.781 90.2238Z" fill="#9D9783"/>
<path d="M137.982 84.869L136.198 85.8941L139.695 91.5625L141.444 90.5615L140.25 87.7032L137.982 84.869Z" fill="#9D9783"/>
<path d="M140.346 90.0791C140.346 91.5746 139.285 92.1776 137.982 91.4299C136.68 90.6701 135.619 88.8489 135.619 87.3535C135.619 85.858 136.68 85.255 137.982 86.0027C139.285 86.7504 140.346 88.5836 140.346 90.0791Z" fill="#B7B4A9"/>
<path d="M140.105 90.0429C140.105 91.4781 139.092 92.057 137.85 91.3334C136.596 90.6097 135.594 88.861 135.594 87.4379C135.594 86.0027 136.608 85.4238 137.85 86.1474C139.104 86.859 140.105 88.6077 140.105 90.0429Z" fill="#D5D2C9"/>
<path d="M201.396 125.5C201.396 128.504 199.273 129.71 196.668 128.202C194.051 126.694 191.941 123.04 191.941 120.049C191.941 117.058 194.063 115.84 196.668 117.348C199.273 118.855 201.396 122.497 201.396 125.5Z" fill="#504F58"/>
<path d="M201.082 125.151C201.082 127.864 199.165 128.962 196.801 127.599C194.437 126.236 192.52 122.92 192.52 120.206C192.52 117.492 194.437 116.395 196.801 117.758C199.165 119.12 201.082 122.437 201.082 125.151Z" fill="#C4C2BB"/>
<path d="M200.552 124.837C200.552 127.213 198.875 128.166 196.801 126.972C194.727 125.778 193.05 122.883 193.05 120.507C193.05 118.132 194.727 117.179 196.801 118.373C198.863 119.567 200.552 122.461 200.552 124.837Z" fill="#B7B4A9"/>
<path d="M200.081 124.572C200.081 126.658 198.61 127.49 196.801 126.441C194.992 125.392 193.521 122.859 193.521 120.773C193.521 118.686 194.992 117.854 196.801 118.903C198.61 119.953 200.081 122.485 200.081 124.572Z" fill="#D5D2C9"/>
<path d="M198.489 124.053C198.489 125.295 197.609 125.802 196.524 125.175C195.438 124.548 194.558 123.028 194.558 121.786C194.558 120.544 195.438 120.037 196.524 120.664C197.609 121.291 198.489 122.811 198.489 124.053Z" fill="#CAC6BC"/>
<path d="M194.92 122.715C195.125 123.342 195.318 123.667 195.752 124.186C195.909 124.367 196.005 124.62 195.957 124.777C195.908 124.934 195.679 124.885 195.474 124.644C195.028 124.138 194.57 123.342 194.377 122.702C194.28 122.401 194.365 122.196 194.522 122.244C194.678 122.268 194.847 122.485 194.92 122.715Z" fill="#504F58"/>
<path d="M198.019 123.933C198.019 125.03 197.247 125.476 196.294 124.922C195.342 124.367 194.57 123.028 194.57 121.943C194.57 120.845 195.342 120.399 196.294 120.954C197.247 121.496 198.019 122.835 198.019 123.933Z" fill="#DDDDDB"/>
<path d="M197.223 123.474C197.223 124.065 196.801 124.306 196.282 124.005C195.764 123.703 195.342 122.98 195.342 122.389C195.342 121.798 195.764 121.557 196.282 121.858C196.801 122.16 197.223 122.883 197.223 123.474Z" fill="#B7B4A9"/>
<path d="M210.779 130.457L205.822 129.915L203.519 128.588L202.988 123.1L205.979 124.837L210.779 126.477V130.457Z" fill="#493F41"/>
<path d="M195.221 75.7513L116.877 30.5128L116.213 31.5741L195.752 77.5001L195.221 75.7513Z" fill="#F3F1EE"/>
<path d="M173.693 94.7706L116.901 61.9784L117.432 61.6768L174.236 94.4691L173.693 94.7706Z" fill="#6B6164"/>
<path d="M173.693 94.7706V96.4228L174.236 96.1093V94.4691L173.693 94.7706Z" fill="#554D4E"/>
<path d="M174.996 110.087V73.4237L191.374 82.867V106.276L185.983 116.431L174.996 110.087Z" fill="#CDC6BC"/>
<path d="M196.101 82.5896L192.411 80.467V101.356L197.874 104.515L199.418 101.995L196.101 82.5896Z" fill="#2D2C37"/>
<path d="M192.905 101.078V81.3112L195.728 82.9393L198.9 101.621L197.585 103.768L192.905 101.078Z" fill="#573F3F"/>
<path d="M116.213 76.9815L111.546 74.28V75.1242L116.213 77.8137V76.9815Z" fill="#493F41"/>
<path d="M208.053 118.059L206.1 116.926V114.682L208.053 115.816V118.059Z" fill="#504F58"/>
<path d="M207.884 117.77L205.738 115.635L206.268 114.972L207.884 115.912V117.77Z" fill="#FF9A2E"/>
<path d="M207.052 117.89L205.738 117.131V115.635L207.052 116.395V117.89Z" fill="#E06F2E"/>
<path d="M120.422 69.0458C120.422 69.7332 119.928 70.0227 119.325 69.6729C118.722 69.3232 118.228 68.4789 118.228 67.7915C118.228 67.1041 118.722 66.8146 119.325 67.1643C119.928 67.5141 120.422 68.3583 120.422 69.0458Z" fill="#504F58"/>
<path d="M120.193 68.9131C120.193 69.4679 119.807 69.6849 119.325 69.4076C118.843 69.1302 118.457 68.4669 118.457 67.9121C118.457 67.3573 118.843 67.1402 119.325 67.4176C119.807 67.695 120.193 68.3704 120.193 68.9131Z" fill="#D83B2E"/>
<path d="M118.65 67.4055C118.65 67.4055 118.252 67.8035 118.179 68.0086C118.095 68.2136 119.108 69.6126 119.108 69.6126C119.108 69.6126 119.614 69.6247 119.94 69.4799C120.242 69.3231 118.65 67.4055 118.65 67.4055Z" fill="#D83B2E"/>
<path d="M120.025 73.3272C120.025 73.7975 119.687 73.9905 119.277 73.7493C118.867 73.5081 118.529 72.9413 118.529 72.4709C118.529 72.0005 118.867 71.8076 119.277 72.0488C119.687 72.29 120.025 72.8568 120.025 73.3272Z" fill="#B5AA9C"/>
<path d="M150.344 90.8389C150.344 91.3092 150.007 91.5022 149.597 91.261C149.187 91.0198 148.849 90.4529 148.849 89.9826C148.849 89.5122 149.187 89.3193 149.597 89.5605C150.007 89.7896 150.344 90.3685 150.344 90.8389Z" fill="#B5AA9C"/>
<path d="M172.62 103.695C172.62 104.166 172.282 104.359 171.872 104.117C171.462 103.876 171.124 103.309 171.124 102.839C171.124 102.369 171.462 102.176 171.872 102.417C172.294 102.658 172.62 103.225 172.62 103.695Z" fill="#B5AA9C"/>
<path d="M119.446 69.1302C119.446 69.5644 119.144 69.7332 118.77 69.5161C118.396 69.299 118.095 68.7684 118.095 68.3463C118.095 67.9121 118.396 67.7432 118.77 67.9603C119.132 68.1774 119.446 68.696 119.446 69.1302Z" fill="#FF512E"/>
<path d="M120.109 72.9533C120.109 73.4237 119.771 73.6166 119.361 73.3754C118.951 73.1342 118.613 72.5674 118.613 72.097C118.613 71.6267 118.951 71.4337 119.361 71.6749C119.771 71.9161 120.109 72.483 120.109 72.9533Z" fill="#9DA1BF"/>
<path d="M150.417 90.453C150.417 90.9233 150.079 91.1163 149.669 90.875C149.259 90.6338 148.921 90.067 148.921 89.5966C148.921 89.1263 149.259 88.9333 149.669 89.1745C150.091 89.4157 150.417 89.9826 150.417 90.453Z" fill="#9DA1BF"/>
<path d="M172.704 103.321C172.704 103.792 172.367 103.985 171.957 103.743C171.546 103.502 171.209 102.935 171.209 102.465C171.209 101.995 171.546 101.802 171.957 102.043C172.367 102.272 172.704 102.851 172.704 103.321Z" fill="#9DA1BF"/>
<path d="M119.94 73.0257C119.94 73.496 119.602 73.689 119.192 73.4478C118.782 73.2066 118.445 72.6398 118.445 72.1694C118.445 71.699 118.782 71.5061 119.192 71.7473C119.614 71.9764 119.94 72.5553 119.94 73.0257Z" fill="#F9F1EC"/>
<path d="M119.832 72.9654C119.832 73.3634 119.554 73.5201 119.204 73.3272C118.855 73.1222 118.577 72.6397 118.577 72.2418C118.577 71.8438 118.855 71.687 119.204 71.8799C119.554 72.0729 119.832 72.5674 119.832 72.9654Z" fill="#E06F2E"/>
<path d="M150.26 90.5253C150.26 90.9957 149.922 91.1886 149.512 90.9474C149.102 90.7062 148.764 90.1394 148.764 89.669C148.764 89.1987 149.102 89.0057 149.512 89.2469C149.922 89.4881 150.26 90.055 150.26 90.5253Z" fill="#F9F1EC"/>
<path d="M150.151 90.465C150.151 90.863 149.874 91.0198 149.524 90.8268C149.174 90.6339 148.897 90.1394 148.897 89.7414C148.897 89.3434 149.174 89.1866 149.524 89.3796C149.862 89.5725 150.151 90.067 150.151 90.465Z" fill="#E06F2E"/>
<path d="M172.535 103.394C172.535 103.864 172.198 104.057 171.788 103.816C171.378 103.575 171.04 103.008 171.04 102.537C171.04 102.067 171.378 101.874 171.788 102.115C172.21 102.344 172.535 102.923 172.535 103.394Z" fill="#F9F1EC"/>
<path d="M172.427 103.333C172.427 103.731 172.15 103.888 171.8 103.695C171.45 103.49 171.173 103.008 171.173 102.61C171.173 102.212 171.45 102.055 171.8 102.248C172.15 102.441 172.427 102.923 172.427 103.333Z" fill="#E06F2E"/>
<path d="M121.001 36.157L118.457 34.6857V33.5641L121.001 35.0354V36.157Z" fill="#CDC6BC"/>
<path d="M120.772 35.8314L118.686 34.6254V33.7812L120.772 34.9993V35.8314Z" fill="#E06F2E"/>
<path d="M152.684 54.4527L150.151 52.9813V51.8597L152.684 53.3311V54.4527Z" fill="#CDC6BC"/>
<path d="M152.467 54.127L150.368 52.921V52.0768L152.467 53.2949V54.127Z" fill="#E06F2E"/>
<path d="M192.64 77.5242L190.095 76.0529V74.9312L192.64 76.3905V77.5242Z" fill="#CDC6BC"/>
<path d="M192.423 77.1986L190.325 75.9805V75.1483L192.423 76.3544V77.1986Z" fill="#E06F2E"/>
<path d="M187.225 98.3525L178.421 93.2751C177.492 92.7324 176.732 91.2972 176.732 90.055V78.0669C176.732 76.8247 177.492 76.2579 178.421 76.7885L187.225 81.8659C188.154 82.4087 188.913 83.8439 188.913 85.0861V97.0741C188.913 98.3284 188.154 98.8952 187.225 98.3525Z" fill="#2D2C37"/>
<path d="M177.227 90.4288V78.2599C177.227 77.3795 177.758 76.9695 178.421 77.3554L187.225 82.4328C187.888 82.8187 188.419 83.8318 188.419 84.7122V96.8812C188.419 97.7616 187.888 98.1716 187.225 97.7857L178.421 92.7083C177.758 92.3344 177.227 91.3093 177.227 90.4288Z" fill="#573F3F"/>
<path d="M181.134 108.58L178.421 107.012C177.492 106.469 176.732 105.034 176.732 103.792V96.1575C176.732 94.9153 177.492 94.3485 178.421 94.8791L181.134 96.447C182.063 96.9897 182.823 98.4249 182.823 99.6671V107.301C182.823 108.544 182.063 109.122 181.134 108.58Z" fill="#2D2C37"/>
<path d="M177.227 104.166V96.3505C177.227 95.4701 177.758 95.06 178.421 95.446L181.135 97.0138C181.798 97.3997 182.329 98.4128 182.329 99.2932V107.108C182.329 107.989 181.798 108.399 181.135 108.013L178.421 106.445C177.758 106.071 177.227 105.046 177.227 104.166Z" fill="#573F3F"/>
<path d="M198.67 122.642C198.465 122.015 198.272 121.689 197.838 121.171C197.681 120.99 197.585 120.737 197.633 120.58C197.681 120.423 197.911 120.471 198.116 120.712C198.562 121.219 199.02 122.015 199.213 122.654C199.31 122.956 199.225 123.161 199.068 123.112C198.912 123.076 198.743 122.859 198.67 122.642Z" fill="#504F58"/>
<path d="M197.766 125.392C198.212 125.404 198.405 125.307 198.622 124.946C198.706 124.813 198.875 124.801 199.032 124.946C199.189 125.09 199.261 125.392 199.153 125.561C198.936 125.947 198.465 126.2 198.007 126.164C197.802 126.152 197.573 125.935 197.537 125.73C197.5 125.513 197.609 125.38 197.766 125.392Z" fill="#504F58"/>
<path d="M195.824 119.965C195.378 119.953 195.185 120.049 194.968 120.411C194.883 120.544 194.715 120.556 194.558 120.411C194.401 120.266 194.329 119.965 194.437 119.796C194.654 119.41 195.125 119.157 195.583 119.193C195.788 119.205 196.017 119.422 196.053 119.627C196.089 119.844 195.981 119.965 195.824 119.965Z" fill="#504F58"/>
<path d="M195.631 124.427C195.185 123.921 194.727 123.125 194.534 122.485C194.497 122.389 194.497 122.304 194.497 122.232C194.365 122.22 194.292 122.413 194.389 122.69C194.582 123.33 195.04 124.126 195.486 124.632C195.691 124.873 195.921 124.922 195.969 124.765C195.981 124.729 195.957 124.68 195.957 124.644C195.848 124.632 195.74 124.56 195.631 124.427Z" fill="#B7B4A9"/>
<path d="M199.225 122.932C199.068 122.883 198.9 122.666 198.827 122.449C198.622 121.822 198.429 121.496 197.995 120.978C197.874 120.833 197.814 120.652 197.802 120.507C197.73 120.495 197.669 120.52 197.645 120.592C197.597 120.749 197.693 121.002 197.85 121.183C198.284 121.689 198.465 122.015 198.682 122.654C198.755 122.883 198.924 123.1 199.08 123.137C199.189 123.161 199.249 123.076 199.261 122.932C199.237 122.92 199.237 122.932 199.225 122.932Z" fill="#B7B4A9"/>
<path d="M198.176 125.959C197.971 125.947 197.742 125.73 197.706 125.525C197.693 125.476 197.718 125.452 197.718 125.416C197.597 125.44 197.513 125.549 197.549 125.718C197.585 125.923 197.814 126.152 198.019 126.152C198.477 126.188 198.948 125.947 199.165 125.549V125.537C198.924 125.814 198.55 125.983 198.176 125.959Z" fill="#B7B4A9"/>
<path d="M194.702 120.218C194.546 120.073 194.473 119.784 194.57 119.615C194.522 119.675 194.461 119.736 194.425 119.796C194.317 119.965 194.389 120.266 194.546 120.411C194.703 120.556 194.871 120.544 194.956 120.411C195.004 120.339 195.052 120.278 195.088 120.23C195.016 120.339 194.859 120.351 194.702 120.218Z" fill="#B7B4A9"/>
<path d="M195.969 119.76C195.547 119.748 195.354 119.844 195.137 120.182C195.306 120.001 195.498 119.953 195.824 119.965C195.945 119.965 196.017 119.868 196.029 119.736C196.005 119.736 195.993 119.76 195.969 119.76Z" fill="#B7B4A9"/>
<path d="M198.96 114.164H198.694L198.707 106.614L200.311 102.586L200.552 102.682L198.96 106.686V114.164Z" fill="#C9C3B9"/>
<path d="M209.428 115.756L199.539 104.745L199.732 104.564L209.621 115.575L209.428 115.756Z" fill="#C9C3B9"/>
<path d="M238.072 97.1947L209.525 113.681V125.705L238.072 109.219V97.1947Z" fill="#E4DFD9"/>
<path d="M231.897 101.38L215.7 110.739V122.606L231.897 113.247V101.38Z" fill="#EBE7E3"/>
<path d="M231.077 103.333L216.52 111.74V114.694L231.077 106.288V103.333Z" fill="#554D4E"/>
<path d="M231.077 108.58L216.52 116.986V121.34L231.077 112.934V108.58Z" fill="#554D4E"/>
<path d="M230.232 105.806L216.52 113.717V114.694L231.077 106.288V103.333L230.232 103.816V105.806Z" fill="#CDC6BC"/>
<path d="M230.232 109.074V112.451L216.52 120.363V121.34L231.077 112.934V108.58L230.232 109.074Z" fill="#CDC6BC"/>
<path d="M209.525 113.681L238.072 97.1947L228.978 86.1594L200.431 102.634L209.525 113.681Z" fill="#F3F1EE"/>
<path d="M200.431 102.634L209.597 113.139L214.964 110.232L237.686 97.0379L228.978 86.1594L238.072 97.1947L209.525 113.681L200.431 102.634Z" fill="#FAF8F5"/>
<path d="M215.7 110.739L231.897 101.38L226.156 94.662L209.959 104.009L215.7 110.739Z" fill="#F3F1EE"/>
<path d="M195.752 77.5001L224.299 61.0135L228.978 86.1594L200.431 102.634L195.752 77.5001Z" fill="#EBE7E3"/>
<path d="M214.988 92.6962L215.085 93.1786L200.853 101.404L197.488 82.0951L211.647 73.9181L211.744 74.4126L214.988 92.6962Z" fill="#554D4E"/>
<path d="M214.554 92.9374L209.38 95.9284L201.179 100.668L200.431 96.3384L198.116 82.8428L198.019 82.3363L205.943 77.7654L211.322 74.6538L213.408 86.4368L213.83 88.8248L214.554 92.9374Z" fill="#B08480"/>
<path d="M228.182 85.6167L215.615 92.8771L215.519 92.3826L212.274 74.099L212.178 73.6166L224.817 66.3201L228.182 85.6167Z" fill="#554D4E"/>
<path d="M227.651 85.3755L223.358 87.86L217.533 91.2248L215.953 92.1414L215.338 88.6801L215.229 88.0409L213.083 75.9202L212.709 73.8579L220.005 69.6488L224.492 67.0558L226.168 76.8006L227.483 84.4228L227.651 85.3755Z" fill="#B08480"/>
<path d="M227.446 85.1464L227.109 85.6891L225.239 86.7745L221.452 84.5916V68.8045L224.383 67.1161L227.446 85.1464Z" fill="#D6B6B2"/>
<path d="M195.752 77.5001L224.299 61.0135L223.768 59.2648L195.221 75.7513L195.752 77.5001Z" fill="#F3F1EE"/>
<path d="M223.768 59.2648L145.424 14.0262L116.877 30.5128L195.221 75.7513L223.768 59.2648Z" fill="#FCFBFA"/>
<path d="M239.459 109.918L210.779 126.477V130.457L239.459 113.898V109.918Z" fill="#554D4E"/>
<path d="M207.885 115.912L207.052 116.395V117.89L207.885 117.77V115.912Z" fill="#E07427"/>
<path d="M215.133 110.449V122.461L215.7 122.606V110.739L215.133 110.449Z" fill="#DED8D1"/>
<path d="M173.693 96.4228L116.901 63.6306V61.9784L173.693 94.7706V96.4228Z" fill="#493F41"/>
<path d="M232.355 111.305L236.263 109.05L232.693 109.593L232.355 110.123V111.305Z" fill="#B5AA9C"/>
<path d="M232.62 101.5L235.635 100.077C235.937 99.9083 236.166 100.041 236.166 100.379V106.662C236.166 107 235.925 107.41 235.635 107.591L232.62 109.327C232.319 109.496 232.09 109.364 232.09 109.026V102.742C232.09 102.405 232.319 101.669 232.62 101.5Z" fill="#B5AA9C"/>
<path d="M236.552 99.6309L236.251 99.45C236.251 99.45 236.251 99.45 236.238 99.45C236.142 99.4018 236.009 99.4018 235.865 99.4862L232.85 101.223C232.548 101.392 232.319 101.802 232.319 102.152V108.435C232.319 108.592 232.367 108.712 232.464 108.761C232.476 108.773 232.488 108.773 232.5 108.785L232.801 108.954L232.898 108.712L235.877 106.988C236.178 106.819 236.407 106.409 236.407 106.059V99.9927L236.552 99.6309Z" fill="#393843"/>
<path d="M233.139 101.392L236.154 99.655C236.456 99.4862 236.685 99.6188 236.685 99.9565V106.24C236.685 106.578 236.444 106.988 236.154 107.169L233.139 108.905C232.837 109.074 232.608 108.942 232.608 108.604V102.32C232.596 101.983 232.837 101.561 233.139 101.392Z" fill="#5C5B64"/>
<path d="M233.284 101.754L235.997 100.186C236.202 100.065 236.359 100.162 236.359 100.391V106.168C236.359 106.397 236.202 106.674 235.997 106.795L233.284 108.363C233.079 108.483 232.922 108.387 232.922 108.158V102.381C232.922 102.152 233.079 101.874 233.284 101.754Z" fill="#CFCEDF"/>
<path d="M236.902 100.692L236.275 100.186L233.055 108.411L233.814 108.568L236.902 100.692Z" fill="#CFCEDF"/>
<path d="M234.031 102.2L236.624 100.704C236.817 100.596 236.974 100.68 236.974 100.897V106.433C236.974 106.65 236.817 106.915 236.624 107.036L234.031 108.532C233.838 108.64 233.682 108.556 233.682 108.339V102.803C233.682 102.574 233.838 102.308 234.031 102.2Z" fill="#F3F1EE"/>
<path d="M233.416 101.959L236.009 100.463C236.202 100.355 236.359 100.439 236.359 100.656V106.192C236.359 106.409 236.202 106.674 236.009 106.795L233.416 108.29C233.223 108.399 233.067 108.314 233.067 108.097V102.562C233.067 102.332 233.223 102.067 233.416 101.959Z" fill="#EEFAF9"/>
<path d="M233.175 111.052L237.083 108.797V107.615L233.175 109.87V111.052Z" fill="#E07427"/>
<path d="M233.175 109.87L232.693 109.593L236.588 107.338L237.083 107.615L233.175 109.87Z" fill="#FF9A2E"/>
<path d="M233.175 109.87L232.693 109.593V110.763L233.175 111.052V109.87Z" fill="#E06F2E"/>
<path d="M210.405 123.993L214.313 121.738L210.743 122.28L210.405 122.823V123.993Z" fill="#B5AA9C"/>
<path d="M210.67 114.188L213.686 112.765C213.987 112.596 214.216 112.729 214.216 113.066V119.35C214.216 119.687 213.975 120.097 213.686 120.278L210.67 122.015C210.369 122.184 210.14 122.051 210.14 121.713V115.43C210.14 115.092 210.381 114.369 210.67 114.188Z" fill="#B5AA9C"/>
<path d="M214.614 112.33L214.313 112.15C214.313 112.15 214.313 112.15 214.301 112.15C214.204 112.101 214.071 112.101 213.927 112.186L210.912 113.922C210.61 114.091 210.381 114.501 210.381 114.851V121.135C210.381 121.291 210.429 121.412 210.514 121.46C210.526 121.472 210.538 121.472 210.55 121.484L210.851 121.653L210.948 121.412L213.927 119.687C214.228 119.518 214.457 119.108 214.457 118.759V112.692L214.614 112.33Z" fill="#393843"/>
<path d="M211.189 114.091L214.204 112.355C214.506 112.186 214.735 112.318 214.735 112.656V118.94C214.735 119.277 214.494 119.687 214.204 119.868L211.189 121.605C210.888 121.774 210.658 121.641 210.658 121.303V115.02C210.646 114.67 210.888 114.26 211.189 114.091Z" fill="#5C5B64"/>
<path d="M211.334 114.453L214.047 112.885C214.252 112.765 214.409 112.861 214.409 113.09V118.867C214.409 119.096 214.252 119.374 214.047 119.494L211.334 121.062C211.129 121.183 210.972 121.086 210.972 120.857V115.08C210.972 114.851 211.141 114.574 211.334 114.453Z" fill="#CFCEDF"/>
<path d="M214.964 113.392L214.325 112.873L211.105 121.098L211.876 121.255L214.964 113.392Z" fill="#CFCEDF"/>
<path d="M212.082 114.887L214.675 113.392C214.867 113.283 215.024 113.368 215.024 113.585V119.121C215.024 119.338 214.867 119.603 214.675 119.724L212.082 121.219C211.889 121.328 211.732 121.243 211.732 121.026V115.49C211.744 115.273 211.889 115.008 212.082 114.887Z" fill="#F3F1EE"/>
<path d="M211.225 123.74L215.133 121.484V120.302L211.225 122.558V123.74Z" fill="#E07427"/>
<path d="M232.765 110.823L236.673 108.568V107.386L232.765 109.641V110.823Z" fill="#F5EC73"/>
<path d="M210.827 123.523L214.723 121.267V120.085L210.827 122.341V123.523Z" fill="#F5EC73"/>
<path d="M211.225 122.558L210.743 122.28L214.65 120.025L215.133 120.302L211.225 122.558Z" fill="#FF9A2E"/>
<path d="M211.225 122.558L210.743 122.28V123.462L211.225 123.74V122.558Z" fill="#E06F2E"/>
<path d="M175.852 109.593V73.9061L174.996 73.4237V110.087L185.983 116.431L186.381 115.683L175.852 109.593Z" fill="#9B897F"/>
<path d="M213.83 88.8248L214.554 92.9374L201.179 100.668L200.431 96.3384L213.83 88.8248Z" fill="#997A77"/>
<path d="M227.651 85.3755L215.953 92.1414L215.229 88.0409L223.37 83.47L227.483 84.4228L227.651 85.3755Z" fill="#997A77"/>
<path d="M175.852 109.593L174.996 110.087L185.983 116.431L186.381 115.683L175.852 109.593Z" fill="#F3F1EE"/>
<path d="M185.452 119.386L172.125 111.691V112.523L185.452 120.218V119.386Z" fill="#493F41"/>
<path d="M185.452 119.386L187.563 118.168V119L185.452 120.218V119.386Z" fill="#554D4E"/>
<path d="M185.452 119.386L187.563 118.168L174.236 110.473L172.125 111.691L185.452 119.386Z" fill="#6B6164"/>
<path d="M211.454 114.562L214.047 113.066C214.24 112.958 214.397 113.042 214.397 113.259V118.795C214.397 119.012 214.24 119.277 214.047 119.398L211.454 120.893C211.261 121.002 211.105 120.918 211.105 120.7V115.165C211.105 114.936 211.261 114.67 211.454 114.562Z" fill="#EEFAF9"/>
<path d="M175.852 73.9061V74.6538L190.325 83.1806V106.192L185.681 115.273L186.381 115.683L191.374 106.276V82.867L175.852 73.9061Z" fill="#F2F1F0"/>
<path d="M215.133 110.449L207.486 101.151L215.7 110.739L215.133 110.449Z" fill="#DED8D1"/>
<path d="M230.232 105.806L231.077 106.288L216.52 114.694V113.717L230.232 105.806Z" fill="#F3F1EE"/>
<path d="M230.232 112.451L231.077 112.934L216.52 121.34V120.363L230.232 112.451Z" fill="#F3F1EE"/>
<path d="M211.322 74.6538L211.864 77.7172L209.609 75.6428L211.322 74.6538Z" fill="#CBCADD"/>
<path d="M216.966 71.3975V80.4066C216.966 81.287 216.435 81.6971 215.772 81.3112L213.698 79.4056L212.721 73.8579L216.966 71.3975Z" fill="#CBCADD"/>
<path d="M211.864 77.7172L209.609 75.6428L211.322 74.6538L211.864 77.7172Z" fill="#D6B6B2"/>
<path d="M212.709 73.8579L216.966 71.3975V80.4066C216.966 81.287 216.435 81.6971 215.772 81.3112L213.698 79.4056L212.709 73.8579Z" fill="#D6B6B2"/>
<path d="M194.908 74.1353L118.746 30.1027L119.289 29.7892L195.1 74.1353H194.908Z" fill="#EBE7E3"/>
<path d="M195.1 73.9543L118.939 29.9218L119.47 29.6203L195.631 73.6528L195.1 73.9543Z" fill="#FCFBFA"/>
<path d="M195.1 73.9543V74.1353L195.631 73.8217V73.6528L195.1 73.9543Z" fill="#EBE7E3"/>
<path d="M195.1 74.1353L118.939 30.1027V29.9218L195.1 73.9543V74.1353Z" fill="#CDC6BC"/>
<path d="M198.417 72.1091L122.256 28.0766L122.786 27.763L198.598 72.1091H198.417Z" fill="#EBE7E3"/>
<path d="M198.598 71.9403L122.437 27.8957L122.967 27.5942L199.141 71.6267L198.598 71.9403Z" fill="#FCFBFA"/>
<path d="M198.598 71.9403V72.1091L199.141 71.7955V71.6267L198.598 71.9403Z" fill="#EBE7E3"/>
<path d="M198.598 72.1091L122.437 28.0766V27.8957L198.598 71.9403V72.1091Z" fill="#CDC6BC"/>
<path d="M201.927 70.0829L125.765 26.0504L126.296 25.7369L202.108 70.0829H201.927Z" fill="#EBE7E3"/>
<path d="M202.108 69.9141L125.946 25.8695L126.477 25.568L202.638 69.6005L202.108 69.9141Z" fill="#FCFBFA"/>
<path d="M202.108 69.9141V70.0829L202.638 69.7814V69.6005L202.108 69.9141Z" fill="#EBE7E3"/>
<path d="M202.108 70.083L125.946 26.0504V25.8695L202.108 69.9141V70.083Z" fill="#CDC6BC"/>
<path d="M205.424 68.0568L129.263 24.0243L129.793 23.7228L205.617 68.0568H205.424Z" fill="#EBE7E3"/>
<path d="M205.617 67.8879L129.444 23.8555L129.986 23.5419L206.148 67.5744L205.617 67.8879Z" fill="#FCFBFA"/>
<path d="M205.617 67.8879V68.0568L206.148 67.7553V67.5744L205.617 67.8879Z" fill="#EBE7E3"/>
<path d="M205.617 68.0568L129.444 24.0243V23.8555L205.617 67.8879V68.0568Z" fill="#CDC6BC"/>
<path d="M208.934 66.0427L132.772 21.9982L133.303 21.6966L209.115 66.0427H208.934Z" fill="#EBE7E3"/>
<path d="M209.115 65.8618L132.953 21.8293L133.484 21.5157L209.645 65.5603L209.115 65.8618Z" fill="#FCFBFA"/>
<path d="M209.115 65.8618V66.0427L209.645 65.7292V65.5603L209.115 65.8618Z" fill="#EBE7E3"/>
<path d="M209.115 66.0427L132.953 21.9982V21.8293L209.115 65.8618V66.0427Z" fill="#CDC6BC"/>
<path d="M212.431 64.0166L136.27 19.9841L136.813 19.6705L212.624 64.0166H212.431Z" fill="#EBE7E3"/>
<path d="M212.624 63.8357L136.463 19.8032L136.994 19.5016L213.155 63.5342L212.624 63.8357Z" fill="#FCFBFA"/>
<path d="M212.624 63.8357V64.0166L213.155 63.703V63.5342L212.624 63.8357Z" fill="#EBE7E3"/>
<path d="M212.624 64.0166L136.463 19.9841V19.8032L212.624 63.8357V64.0166Z" fill="#CDC6BC"/>
<path d="M215.941 61.9904L139.779 17.9579L140.31 17.6443L216.122 61.9904H215.941Z" fill="#EBE7E3"/>
<path d="M216.122 61.8216L139.96 17.777L140.503 17.4755L216.664 61.508L216.122 61.8216Z" fill="#FCFBFA"/>
<path d="M216.122 61.8216V61.9904L216.664 61.6889V61.508L216.122 61.8216Z" fill="#EBE7E3"/>
<path d="M216.122 61.9904L139.96 17.9579V17.777L216.122 61.8216V61.9904Z" fill="#CDC6BC"/>
<path d="M219.45 59.9643L143.289 15.9318L143.82 15.6303L219.631 59.9643H219.45Z" fill="#EBE7E3"/>
<path d="M219.631 59.7954L143.47 15.7629L144.001 15.4494L220.162 59.4818L219.631 59.7954Z" fill="#FCFBFA"/>
<path d="M219.631 59.7954V59.9643L220.162 59.6628V59.4818L219.631 59.7954Z" fill="#EBE7E3"/>
<path d="M219.631 59.9643L143.47 15.9318V15.7629L219.631 59.7954V59.9643Z" fill="#CDC6BC"/>
<path d="M202.337 70.8066L201.082 70.0829L202.071 69.492L203.048 70.8066H202.337Z" fill="#EBE7E3"/>
<path d="M203.048 70.8066L204.037 70.2156V69.7212L203.048 70.3121V70.8066Z" fill="#E07427"/>
<path d="M203.048 70.3121L201.794 69.5885L202.783 68.9975L204.037 69.7211L203.048 70.3121Z" fill="#FF9A2E"/>
<path d="M203.048 70.3121L201.794 69.5885V70.0829L203.048 70.8066V70.3121Z" fill="#E06F2E"/>
<path d="M207.306 67.8518L206.039 67.1281L207.04 66.5372L208.017 67.8518H207.306Z" fill="#EBE7E3"/>
<path d="M208.017 67.8518L209.006 67.2608V66.7663L208.017 67.3573V67.8518Z" fill="#E07427"/>
<path d="M208.017 67.3573L206.763 66.6337L207.752 66.0427L209.006 66.7663L208.017 67.3573Z" fill="#FF9A2E"/>
<path d="M208.017 67.3573L206.763 66.6337V67.1281L208.017 67.8518V67.3573Z" fill="#E06F2E"/>
<path d="M212.262 64.897L211.008 64.1734L212.009 63.5824L212.974 64.897H212.262Z" fill="#EBE7E3"/>
<path d="M212.974 64.897L213.975 64.306V63.8115L212.974 64.4025V64.897Z" fill="#E07427"/>
<path d="M212.974 64.4025L211.72 63.6789L212.721 63.0879L213.975 63.8115L212.974 64.4025Z" fill="#FF9A2E"/>
<path d="M212.974 64.4025L211.72 63.6789V64.1734L212.974 64.897V64.4025Z" fill="#E06F2E"/>
<path d="M209.85 100.137L216.363 96.3746L215.109 94.8309L208.584 98.5817L209.85 100.137Z" fill="#CDC6BC"/>
<path d="M218.944 94.8429L225.456 91.0801L224.202 89.5364L217.69 93.2992L218.944 94.8429Z" fill="#CDC6BC"/>
<path d="M212.612 95.3013C212.757 95.446 212.962 95.4219 213.083 95.241C213.203 95.0601 213.179 94.8068 213.046 94.6621C212.902 94.5173 212.697 94.5414 212.576 94.7223C212.455 94.9032 212.467 95.1565 212.612 95.3013Z" fill="#493F41"/>
<path d="M212.636 95.2651C212.757 95.3857 212.938 95.3736 213.046 95.2168C213.155 95.06 213.131 94.843 213.01 94.7103C212.902 94.5897 212.733 94.6017 212.624 94.7223C212.612 94.7344 212.612 94.7465 212.6 94.7585C212.504 94.9153 212.516 95.1324 212.636 95.2651Z" fill="#493F41"/>
<path d="M212.829 94.6259C212.829 94.6259 213.058 94.6379 213.131 94.6741C213.203 94.7103 213.179 95.2168 213.179 95.2168C213.179 95.2168 213.01 95.3133 212.865 95.3374C212.721 95.3615 212.829 94.6259 212.829 94.6259Z" fill="#493F41"/>
<path d="M212.95 95.1685C213.046 95.265 213.191 95.253 213.275 95.1324C213.36 95.0118 213.348 94.8309 213.251 94.7344C213.155 94.6379 213.01 94.65 212.926 94.7706C212.841 94.8912 212.853 95.0721 212.95 95.1685Z" fill="#5C504E"/>
<path d="M213.83 88.8248L214.554 92.9374L209.38 95.9284L198.116 82.8428L198.019 82.3363L205.943 77.7654L213.408 86.4368L213.83 88.8248Z" fill="#383838"/>
<path d="M217.533 91.2248L215.953 92.1414L215.338 88.6801L217.533 91.2248Z" fill="#383838"/>
<path d="M227.651 85.3755L223.358 87.86L213.083 75.9202L212.709 73.8579L220.005 69.6488L226.168 76.8006L227.483 84.4228L227.651 85.3755Z" fill="#383838"/>
<path d="M219.282 123.366L217.46 124.415V123.607L219.282 122.558V123.366Z" fill="#493F41"/>
<path d="M219.125 123.318L217.629 124.186V123.583L219.125 122.727V123.318Z" fill="#E06F2E"/>
<path d="M232.222 115.551L230.727 116.419V115.816L232.222 114.96V115.551Z" fill="#E06F2E"/>
<path d="M209.766 95.1565L209.356 95.5545L212.817 95.1927L212.769 94.7103L209.766 95.1565Z" fill="#493F41"/>
<path d="M213.07 93.7213C213.034 93.7213 203.265 98.7867 203.265 98.7867L203.157 98.4731L212.672 93.3233L213.07 93.7213Z" fill="#5C504E"/>
<path d="M163.49 84.266C163.044 84.266 162.562 84.1213 162.079 83.8439L146.063 74.6056C144.314 73.5925 142.939 70.9875 142.939 68.6839V59.5422C142.939 58.2276 143.398 57.2145 144.206 56.7562C144.905 56.3582 145.761 56.4065 146.63 56.901L162.646 66.1513C164.395 67.1643 165.77 69.7694 165.77 72.0729V81.2147C165.77 82.5293 165.311 83.5424 164.503 84.0007C164.202 84.1816 163.852 84.266 163.49 84.266ZM162.646 82.867C162.996 83.072 163.514 83.265 163.936 83.0117C164.371 82.7584 164.636 82.0831 164.636 81.2026V72.0609C164.636 70.1795 163.466 67.9242 162.079 67.1161L146.063 57.8899C145.713 57.6849 145.207 57.4919 144.772 57.7452C144.338 57.9984 144.073 58.6738 144.073 59.5542V68.696C144.073 70.5774 145.243 72.8327 146.63 73.6408L162.646 82.867Z" fill="#E9E5E1"/>
<path d="M163.478 83.7474C163.032 83.7474 162.549 83.6027 162.067 83.3253L146.051 74.0749C144.302 73.0619 142.927 70.4568 142.927 68.1533V59.0115C142.927 57.6969 143.386 56.6839 144.194 56.2135C144.893 55.8155 145.761 55.8637 146.618 56.3582L162.634 65.6086C164.383 66.6216 165.758 69.2267 165.758 71.5302V80.672C165.758 81.9866 165.299 82.9996 164.491 83.4579C164.19 83.663 163.84 83.7474 163.478 83.7474ZM145.207 57.0939C145.05 57.0939 144.905 57.1301 144.76 57.2145C144.326 57.4678 144.061 58.1432 144.061 59.0236V68.1654C144.061 70.0468 145.231 72.3021 146.618 73.1101L162.634 82.3604C162.984 82.5655 163.502 82.7584 163.924 82.5052C164.359 82.2519 164.624 81.5765 164.624 80.6961V71.5543C164.624 69.6729 163.454 67.4176 162.067 66.6096L146.051 57.3593C145.81 57.2266 145.508 57.0939 145.207 57.0939Z" fill="#D9D3CC"/>
<path d="M138.573 69.8779C138.127 69.8779 137.645 69.7332 137.162 69.4558L121.146 60.2055C119.397 59.1924 118.022 56.5874 118.022 54.2838V45.1421C118.022 43.8275 118.481 42.8144 119.289 42.3561C119.988 41.9461 120.845 42.0064 121.713 42.5008L137.729 51.7511C139.478 52.7642 140.853 55.3693 140.853 57.6728V66.8146C140.853 68.1292 140.395 69.1422 139.586 69.6005C139.273 69.7935 138.935 69.8779 138.573 69.8779ZM137.729 68.4789C138.079 68.684 138.598 68.8769 139.02 68.6236C139.454 68.3704 139.719 67.695 139.719 66.8146V57.6728C139.719 55.7914 138.549 53.5361 137.162 52.7281L121.146 43.4777C120.796 43.2727 120.278 43.0797 119.856 43.333C119.421 43.5863 119.156 44.2617 119.156 45.1421V54.2838C119.156 56.1652 120.326 58.4205 121.713 59.2286L137.729 68.4789Z" fill="#E9E5E1"/>
<path d="M138.561 69.3593C138.115 69.3593 137.633 69.2146 137.15 68.9372L121.134 59.6869C119.385 58.6738 118.01 56.0688 118.01 53.7652V44.6235C118.01 43.3089 118.469 42.2958 119.277 41.8375C119.976 41.4395 120.845 41.4878 121.701 41.9822L137.717 51.2325C139.466 52.2456 140.841 54.8507 140.841 57.1542V66.296C140.841 67.6106 140.382 68.6236 139.574 69.0819C139.261 69.2749 138.923 69.3593 138.561 69.3593ZM120.29 42.7058C120.133 42.7058 119.988 42.742 119.844 42.8264C119.409 43.0797 119.144 43.7551 119.144 44.6355V53.7652C119.144 55.6466 120.314 57.902 121.701 58.71L137.717 67.9603C138.067 68.1653 138.585 68.3583 139.008 68.1051C139.442 67.8518 139.707 67.1764 139.707 66.296V57.1542C139.707 55.2728 138.537 53.0175 137.15 52.2094L121.134 42.9591C120.893 42.8385 120.591 42.7058 120.29 42.7058Z" fill="#D9D3CC"/>
<path d="M173.018 92.3706L116.213 59.5784V57.9261L173.018 90.7303V92.3706Z" fill="#F5B53D"/>
<path d="M124.74 49.8456V53.1743C124.74 53.8014 125.415 54.1994 125.958 53.8858L128.865 52.2336C129.407 51.92 129.42 51.1361 128.865 50.8225L125.958 49.1461C125.428 48.8205 124.74 49.2185 124.74 49.8456Z" fill="#DE4037"/>
<path d="M133.351 61.8457V58.517C133.351 57.8899 132.676 57.4919 132.133 57.8055L129.227 59.4577C128.684 59.7713 128.672 60.5552 129.227 60.8688L132.133 62.5452C132.664 62.8708 133.351 62.4849 133.351 61.8457Z" fill="#DE4037"/>
<path d="M125.15 58.5291L127.454 59.8557C128.177 60.2778 128.985 59.4577 128.563 58.7341L126.26 54.7662C125.838 54.0426 124.74 54.3441 124.74 55.1763V57.8175C124.74 58.119 124.897 58.3844 125.15 58.5291Z" fill="#F5B53D"/>
<path d="M132.941 53.1622L130.638 51.8356C129.914 51.4134 129.106 52.2335 129.528 52.9572L131.832 56.925C132.254 57.6487 133.351 57.3472 133.351 56.515V53.8738C133.351 53.5723 133.194 53.3069 132.941 53.1622Z" fill="#F5B53D"/>
<path d="M139.599 59.7593C139.599 60.9532 138.851 61.303 137.693 60.6276L136.21 59.7713V55.8276L137.741 56.708C138.863 57.3592 139.599 58.5532 139.599 59.7593ZM138.429 59.096C138.429 58.5171 138.139 57.9622 137.693 57.709L137.319 57.4919V59.4095L137.741 59.6507C138.175 59.8919 138.429 59.6749 138.429 59.096Z" fill="#493F41"/>
<path d="M142.819 59.6507V60.6397L141.046 59.6145V60.097L142.65 61.0256V62.0146L141.046 61.0859V61.5804L142.855 62.6296V63.6186L139.912 61.9181V57.9743L142.819 59.6507Z" fill="#493F41"/>
<path d="M144.435 60.5794V63.4377L145.87 64.2578V65.3432L143.301 63.8598V59.916L144.435 60.5794Z" fill="#493F41"/>
<path d="M147.293 62.2316V66.1754L146.159 65.5241V61.5804L147.293 62.2316Z" fill="#493F41"/>
<path d="M148.728 63.0638L149.44 66.0548L150.151 63.8719L151.309 64.5472L149.995 67.7312L148.825 67.0558L147.522 62.3643L148.728 63.0638Z" fill="#493F41"/>
<path d="M154.433 66.3563V67.3453L152.66 66.3201V66.8025L154.264 67.7312V68.7201L152.66 67.7915V68.286L154.469 69.3352V70.3242L151.526 68.6237V64.6799L154.433 66.3563Z" fill="#493F41"/>
<path d="M156.881 71.7111L156.471 70.4447L156.049 70.2036V71.2287L154.915 70.5774V66.6337L156.58 67.5985C157.508 68.1412 158.039 68.9613 158.039 69.8538C158.039 70.4327 157.846 70.7463 157.496 70.7824L158.172 72.4588L156.881 71.7111ZM156.037 69.2146L156.555 69.5161C156.797 69.6608 156.941 69.5644 156.941 69.2629C156.941 68.9734 156.797 68.7201 156.555 68.5754L156.037 68.2739V69.2146Z" fill="#493F41"/>
<path d="M160.523 72.5915V73.8217L159.39 73.1704V71.9764L158.135 68.503L159.269 69.1543L159.956 71.0719L160.62 69.9382L161.753 70.5895L160.523 72.5915Z" fill="#493F41"/>
<path d="M137.126 62.9794C137.03 62.9312 136.981 62.9191 136.981 63.0035C136.981 63.3533 138.248 63.8719 138.248 64.8849C138.248 65.5121 137.765 65.5121 137.211 65.1864C136.788 64.9452 136.306 64.499 135.98 64.0287L136.282 63.498C136.535 63.8839 136.969 64.3302 137.223 64.4749C137.343 64.5472 137.416 64.5472 137.416 64.4387C137.416 64.0769 136.149 63.5824 136.149 62.5935C136.149 62.0266 136.559 61.9181 137.199 62.2799C137.584 62.509 137.995 62.8709 138.272 63.2327L137.982 63.7633C137.717 63.498 137.331 63.1 137.126 62.9794Z" fill="#493F41"/>
<path d="M140.527 64.2698V64.9814L139.261 64.2457V64.5955L140.407 65.2588V65.9704L139.261 65.307V65.6568L140.563 66.4045V67.1161L138.453 65.898V63.0879L140.527 64.2698Z" fill="#493F41"/>
<path d="M142.276 68.093L141.986 67.1885L141.685 67.0076V67.7432L140.877 67.2729V64.4628L142.059 65.1503C142.722 65.5362 143.108 66.1151 143.108 66.7663C143.108 67.1764 142.975 67.4055 142.722 67.4296L143.205 68.6237L142.276 68.093ZM141.673 66.308L142.047 66.5251C142.228 66.6216 142.324 66.5613 142.324 66.3442C142.324 66.1392 142.228 65.9583 142.047 65.8497L141.673 65.6327V66.308Z" fill="#493F41"/>
<path d="M144.061 66.308L144.567 68.4428L145.074 66.887L145.906 67.3694L144.965 69.6367L144.121 69.1543L143.193 65.8015L144.061 66.308Z" fill="#493F41"/>
<path d="M146.871 67.9362V70.7463L146.063 70.2759V67.4658L146.871 67.9362Z" fill="#493F41"/>
<path d="M148.439 69.5885C148.149 69.4196 147.932 69.5644 147.932 69.9382C147.932 70.3121 148.149 70.7101 148.439 70.8789C148.62 70.9754 148.837 70.9875 148.994 70.8789L149.464 71.7232C149.187 71.9041 148.776 71.892 148.391 71.6629C147.631 71.2287 147.088 70.3 147.088 69.4558C147.088 68.6236 147.643 68.3462 148.415 68.7925C148.789 69.0096 149.199 69.4437 149.452 69.902L148.982 70.2638C148.849 69.9744 148.632 69.697 148.439 69.5885Z" fill="#493F41"/>
<path d="M151.707 70.7222V71.4337L150.441 70.698V71.0478L151.587 71.7111V72.4227L150.441 71.7594V72.1091L151.743 72.8568V73.5684L149.633 72.3503V69.5402L151.707 70.7222Z" fill="#493F41"/>
<path d="M225.625 87.7635C225.77 87.9082 225.975 87.8841 226.096 87.7032C226.216 87.5223 226.192 87.269 226.059 87.1243C225.915 86.9796 225.71 87.0037 225.589 87.1846C225.469 87.3655 225.481 87.6188 225.625 87.7635Z" fill="#493F41"/>
<path d="M225.649 87.7273C225.77 87.8479 225.951 87.8359 226.06 87.6791C226.168 87.5223 226.144 87.3052 226.023 87.1726C225.915 87.0519 225.746 87.064 225.637 87.1846C225.625 87.1966 225.625 87.2087 225.613 87.2208C225.517 87.3776 225.529 87.5947 225.649 87.7273Z" fill="#493F41"/>
<path d="M225.842 87.0881C225.842 87.0881 226.072 87.1002 226.144 87.1364C226.216 87.1725 226.192 87.6791 226.192 87.6791C226.192 87.6791 226.023 87.7756 225.879 87.7997C225.734 87.8238 225.842 87.0881 225.842 87.0881Z" fill="#493F41"/>
<path d="M225.963 87.6308C226.059 87.7273 226.204 87.7152 226.289 87.5946C226.373 87.474 226.361 87.2931 226.265 87.1966C226.168 87.1002 226.023 87.1122 225.939 87.2328C225.854 87.3534 225.867 87.5343 225.963 87.6308Z" fill="#5C504E"/>
<path d="M222.779 87.6188L222.369 88.0168L225.818 87.667L225.782 87.1725L222.779 87.6188Z" fill="#493F41"/>
<path d="M226.084 86.1836C226.047 86.1836 216.279 91.2489 216.279 91.2489L216.17 90.9354L225.686 85.7856L226.084 86.1836Z" fill="#5C504E"/>
<path d="M226.156 94.662L231.475 101.283L215.784 110.353L207.486 101.151L215.7 110.739L231.897 101.38L226.156 94.662Z" fill="#FAF8F5"/>
<path d="M221.235 126.031L225.854 123.366C226.313 123.1 226.675 122.401 226.675 121.798V119.157C226.675 118.554 226.313 118.276 225.854 118.542L221.235 121.207C220.777 121.472 220.415 122.172 220.415 122.775V125.416C220.415 126.007 220.789 126.284 221.235 126.031Z" fill="#FAF8F5"/>
<path d="M226.94 119.265V121.906C226.94 122.509 226.566 123.209 226.108 123.474L221.489 126.14C221.03 126.405 220.668 126.128 220.668 125.525V122.883C220.668 122.28 221.03 121.581 221.489 121.316L226.108 118.638C226.566 118.373 226.94 118.662 226.94 119.265Z" fill="#EBE7E3"/>
<path d="M226.94 119.265V119.555L220.668 123.173V122.883C220.668 122.28 221.03 121.581 221.489 121.316L226.108 118.638C226.566 118.373 226.94 118.662 226.94 119.265Z" fill="#FF8E8C"/>
<path d="M113.452 74.1353C113.452 74.0629 113.427 68.7925 113.44 65.6327C112.861 65.3553 112.246 65.0538 111.896 64.8729L111.57 64.704L111.655 64.2698C111.823 63.7874 113.343 62.9673 113.862 63.0518C114.115 63.1 114.296 63.3171 114.296 63.5703C114.296 63.8598 114.284 64.4025 114.284 65.102C114.851 65.3794 115.321 65.5844 115.321 65.5965C115.707 65.8498 116.153 65.8498 116.491 65.6327L117.07 65.2588L117.528 65.9704L116.949 66.3442C116.322 66.7422 115.526 66.7422 114.899 66.3322C114.887 66.3322 114.634 66.2116 114.272 66.0427C114.272 69.2146 114.284 74.075 114.284 74.1353H113.452ZM112.764 64.3543C112.969 64.4628 113.21 64.5714 113.452 64.692C113.452 64.4266 113.452 64.1854 113.452 63.9925C113.235 64.0769 112.969 64.2216 112.764 64.3543Z" fill="#898184"/>
<path d="M114.187 73.9543C114.018 73.8578 113.753 73.8578 113.584 73.9543C113.415 74.0508 113.415 74.2076 113.584 74.3041C113.753 74.4006 114.018 74.4006 114.187 74.3041C114.344 74.2076 114.344 74.0508 114.187 73.9543Z" fill="#898184"/>
<path d="M117.021 65.4397C117.021 65.6326 117.166 65.8618 117.335 65.9583C117.504 66.0547 117.637 65.9703 117.637 65.7774C117.637 65.5844 117.492 65.3552 117.323 65.2588C117.154 65.1743 117.021 65.2467 117.021 65.4397Z" fill="#898184"/>
<path d="M24.3253 67.2005L14.5443 61.4477L26.9182 54.718L29.5957 67.4779L24.3253 67.2005Z" fill="#DFE4EB"/>
<path d="M41.9696 43.0435V60.7482L29.5956 67.4779V49.7732L41.9696 43.0435Z" fill="#EDF4FF"/>
<path d="M29.5957 49.7732V67.4779L19.8147 61.7251V44.0204L29.5957 49.7732Z" fill="#DDE7F8"/>
<path d="M29.5957 49.7732L19.8147 44.0204L32.1886 37.2907L41.9696 43.0435L29.5957 49.7732Z" fill="#EBF4FF"/>
<path d="M44.9245 74.8468L32.9726 67.8156L49.025 59.0839L49.821 74.8468H44.9245Z" fill="#DFE4EB"/>
<path d="M65.8734 60.2055V66.115L49.821 74.8468V68.9372L65.8734 60.2055Z" fill="#EDF4FF"/>
<path d="M49.821 68.9372V74.8468L37.8691 67.8156V61.906L49.821 68.9372Z" fill="#DDE7F8"/>
<path d="M49.821 68.9372L37.8691 61.906L53.9094 53.1743L65.8734 60.2055L49.821 68.9372Z" fill="#EBF4FF"/>
<path d="M20.5383 88.3665L6.95831 80.3825L18.0418 74.3523L26.0982 88.3665H20.5383Z" fill="#DFE4EB"/>
<path d="M37.1817 75.6187V82.3363L26.0982 88.3665V81.6489L37.1817 75.6187Z" fill="#EDF4FF"/>
<path d="M26.0981 81.6489V88.3665L12.5181 80.3825V73.6649L26.0981 81.6489Z" fill="#DDE7F8"/>
<path d="M26.0981 81.6489L12.5181 73.6649L23.6016 67.6347L37.1817 75.6187L26.0981 81.6489Z" fill="#EBF4FF"/>
<path d="M222.297 178.12L208.705 170.124L219.788 164.094L227.857 178.12H222.297Z" fill="#DFE4EB"/>
<path d="M238.94 165.372V172.09L227.857 178.12V171.402L238.94 165.372Z" fill="#EDF4FF"/>
<path d="M227.856 171.402V178.12L214.264 170.124V163.406L227.856 171.402Z" fill="#DDE7F8"/>
<path d="M227.856 171.402L214.264 163.406L225.348 157.376L238.94 165.372L227.856 171.402Z" fill="#EBF4FF"/>
<path d="M88.5951 122.172L75.7267 114.61L106.589 97.8218L94.155 122.172H88.5951Z" fill="#DFE4EB"/>
<path d="M125.017 97.5444V105.384L94.155 122.172V114.333L125.017 97.5444Z" fill="#EDF4FF"/>
<path d="M94.155 114.333V122.172L81.2865 114.61V106.771L94.155 114.333Z" fill="#DDE7F8"/>
<path d="M94.155 114.333L81.2865 106.783L112.149 89.9826L125.017 97.5444L94.155 114.333Z" fill="#EBF4FF"/>
<path d="M123.438 136.753L105.89 126.441L128.093 114.345L128.008 136.801L123.438 136.753Z" fill="#DFE4EB"/>
<path d="M144.953 107.868V127.575L128.008 136.801V117.082L144.953 107.868Z" fill="#EDF4FF"/>
<path d="M128.008 117.082V136.801L110.461 126.489V106.771L128.008 117.082Z" fill="#DDE7F8"/>
<path d="M128.008 117.094L110.461 106.771L127.405 97.5444L144.965 107.868L128.008 117.094Z" fill="#EBF4FF"/>
<path d="M163.37 158.896L135.16 142.614L153.371 132.122L168.929 159.306L163.37 158.896Z" fill="#DFE4EB"/>
<path d="M187.141 126.308V148.813L168.929 159.306V136.813L187.141 126.308Z" fill="#EDF4FF"/>
<path d="M168.929 136.813V159.306L140.732 143.024V120.532L168.929 136.813Z" fill="#DDE7F8"/>
<path d="M168.929 136.813L140.732 120.532L158.931 110.027L187.141 126.309L168.929 136.813Z" fill="#EBF4FF"/>
<path d="M184.801 172.801L171.945 165.239L202.807 148.451L190.361 172.608L184.801 172.801Z" fill="#DFE4EB"/>
<path d="M216.411 150.61V158.437L190.361 172.608V164.781L216.411 150.61Z" fill="#EDF4FF"/>
<path d="M190.361 164.781V172.608L177.504 165.059V157.219L190.361 164.781Z" fill="#DDE7F8"/>
<path d="M190.373 164.781L177.504 157.219L203.555 143.048L216.411 150.61L190.373 164.781Z" fill="#EBF4FF"/>
<path d="M157.158 187.31L136.427 175.129L147.51 169.099L162.718 187.31H157.158Z" fill="#DFE4EB"/>
<path d="M173.802 167.555V181.292L162.718 187.31V173.585L173.802 167.555Z" fill="#EDF4FF"/>
<path d="M162.718 173.585V187.31L141.986 175.129V161.404L162.718 173.585Z" fill="#DDE7F8"/>
<path d="M162.718 173.585L141.986 161.404L153.07 155.374L173.802 167.555L162.718 173.585Z" fill="#EBF4FF"/>
<path d="M86.9429 150.562L54.2109 131.314L69.7447 122.859L92.5027 150.562H86.9429Z" fill="#DFE4EB"/>
<path d="M108.024 132.918V142.108L92.5027 150.562V141.372L108.024 132.918Z" fill="#EDF4FF"/>
<path d="M92.5027 141.372V150.562L59.7708 131.314V122.124L92.5027 141.372Z" fill="#DDE7F8"/>
<path d="M92.5027 141.372L59.7708 122.124L75.3045 113.681L108.036 132.918L92.5027 141.372Z" fill="#EBF4FF"/>
<path d="M67.1035 169.292L45.4792 156.58L62.412 147.378L72.6633 169.702L67.1035 169.292Z" fill="#DFE4EB"/>
<path d="M89.5841 150.478V160.488L72.6633 169.702V159.68L89.5841 150.478Z" fill="#EDF4FF"/>
<path d="M72.6634 159.68V169.702L51.0511 156.99V146.968L72.6634 159.68Z" fill="#DDE7F8"/>
<path d="M72.6634 159.68L51.0511 146.968L67.9718 137.766L89.5841 150.478L72.6634 159.68Z" fill="#EBF4FF"/>
<path d="M113.777 174.707L97.6887 165.252L118.059 154.168L119.337 174.924L113.777 174.707Z" fill="#DFE4EB"/>
<path d="M139.707 140.926V163.84L119.337 174.924V152.009L139.707 140.926Z" fill="#EDF4FF"/>
<path d="M119.337 152.009V174.924L103.248 165.469V142.554L119.337 152.009Z" fill="#DDE7F8"/>
<path d="M119.349 152.009L103.248 142.554L123.619 131.47L139.707 140.926L119.349 152.009Z" fill="#EBF4FF"/>
<defs>
<linearGradient id="paint0_linear" x1="-5.27055" y1="131.105" x2="164.421" y2="32.3175" gradientUnits="userSpaceOnUse">
<stop stop-color="#FFE25B"/>
<stop offset="1" stop-color="#FF7270"/>
</linearGradient>
<linearGradient id="paint1_linear" x1="-5.23635" y1="131.164" x2="164.457" y2="32.3758" gradientUnits="userSpaceOnUse">
<stop stop-color="#FFE25B"/>
<stop offset="1" stop-color="#FF7270"/>
</linearGradient>
<linearGradient id="paint2_linear" x1="-5.20163" y1="131.223" x2="164.49" y2="32.4351" gradientUnits="userSpaceOnUse">
<stop stop-color="#FFE25B"/>
<stop offset="1" stop-color="#FF7270"/>
</linearGradient>
<linearGradient id="paint3_linear" x1="-5.1674" y1="131.282" x2="164.524" y2="32.4942" gradientUnits="userSpaceOnUse">
<stop stop-color="#FFE25B"/>
<stop offset="1" stop-color="#FF7270"/>
</linearGradient>
<linearGradient id="paint4_linear" x1="-5.13257" y1="131.341" x2="164.56" y2="32.5538" gradientUnits="userSpaceOnUse">
<stop stop-color="#FFE25B"/>
<stop offset="1" stop-color="#FF7270"/>
</linearGradient>
<linearGradient id="paint5_linear" x1="-5.09858" y1="131.401" x2="164.594" y2="32.6126" gradientUnits="userSpaceOnUse">
<stop stop-color="#FFE25B"/>
<stop offset="1" stop-color="#FF7270"/>
</linearGradient>
<linearGradient id="paint6_linear" x1="-3.16517" y1="134.722" x2="166.528" y2="35.9345" gradientUnits="userSpaceOnUse">
<stop stop-color="#FFE25B"/>
<stop offset="1" stop-color="#FF7270"/>
</linearGradient>
<linearGradient id="paint7_linear" x1="4.57339" y1="148.015" x2="174.266" y2="49.2274" gradientUnits="userSpaceOnUse">
<stop stop-color="#FFE25B"/>
<stop offset="1" stop-color="#FF7270"/>
</linearGradient>
<linearGradient id="paint8_linear" x1="12.929" y1="162.367" x2="182.621" y2="63.5797" gradientUnits="userSpaceOnUse">
<stop stop-color="#FFE25B"/>
<stop offset="1" stop-color="#FF7270"/>
</linearGradient>
<linearGradient id="paint9_linear" x1="21.2832" y1="176.72" x2="190.977" y2="77.9311" gradientUnits="userSpaceOnUse">
<stop stop-color="#FFE25B"/>
<stop offset="1" stop-color="#FF7270"/>
</linearGradient>
<linearGradient id="paint10_linear" x1="29.6381" y1="191.072" x2="199.332" y2="92.2832" gradientUnits="userSpaceOnUse">
<stop stop-color="#FFE25B"/>
<stop offset="1" stop-color="#FF7270"/>
</linearGradient>
<linearGradient id="paint11_linear" x1="37.9935" y1="205.423" x2="207.686" y2="106.635" gradientUnits="userSpaceOnUse">
<stop stop-color="#FFE25B"/>
<stop offset="1" stop-color="#FF7270"/>
</linearGradient>
<linearGradient id="paint12_linear" x1="46.3511" y1="219.774" x2="216.042" y2="120.987" gradientUnits="userSpaceOnUse">
<stop stop-color="#FFE25B"/>
<stop offset="1" stop-color="#FF7270"/>
</linearGradient>
<linearGradient id="paint13_linear" x1="54.7044" y1="234.127" x2="224.397" y2="135.34" gradientUnits="userSpaceOnUse">
<stop stop-color="#FFE25B"/>
<stop offset="1" stop-color="#FF7270"/>
</linearGradient>
<linearGradient id="paint14_linear" x1="63.0602" y1="248.479" x2="232.752" y2="149.692" gradientUnits="userSpaceOnUse">
<stop stop-color="#FFE25B"/>
<stop offset="1" stop-color="#FF7270"/>
</linearGradient>
<linearGradient id="paint15_linear" x1="35.7281" y1="149.099" x2="265.232" y2="149.099" gradientUnits="userSpaceOnUse">
<stop stop-color="#57A2FF"/>
<stop offset="1" stop-color="#FF7270"/>
</linearGradient>
</defs>
</svg>
