<svg width="227" height="227" viewBox="0 0 227 227" fill="none" xmlns="http://www.w3.org/2000/svg">
<path d="M227 113.5C227 176.184 176.184 227 113.5 227C50.8157 227 0 176.184 0 113.5C0 50.8157 50.8157 0 113.5 0C176.184 0 227 50.8157 227 113.5Z" fill="#FAFAFA"/>
<path d="M131.794 73C145.693 73 155 82.758 155 97.272V130.773C155 145.242 145.693 155 131.794 155H96.247C82.348 155 73 145.242 73 130.773V97.272C73 82.758 82.348 73 96.247 73H131.794ZM131.138 101.7C129.744 100.306 127.448 100.306 126.054 101.7L109.121 118.633L101.946 111.458C100.552 110.064 98.256 110.064 96.862 111.458C95.468 112.852 95.468 115.107 96.862 116.542L106.62 126.259C107.317 126.956 108.219 127.284 109.121 127.284C110.064 127.284 110.966 126.956 111.663 126.259L131.138 106.784C132.532 105.39 132.532 103.135 131.138 101.7Z" fill="#4CD964"/>
</svg>
