<svg width="152" height="159" viewBox="0 0 152 159" fill="none" xmlns="http://www.w3.org/2000/svg">
<g clip-path="url(#clip0_937:976)">
<path d="M103.709 35.5834C105.112 35.5834 106.25 34.4454 106.25 33.0417C106.25 31.6379 105.112 30.5 103.709 30.5C102.305 30.5 101.167 31.6379 101.167 33.0417C101.167 34.4454 102.305 35.5834 103.709 35.5834Z" fill="#374957"/>
<path d="M93.5417 25.4171C94.9454 25.4171 96.0833 24.2791 96.0833 22.8754C96.0833 21.4717 94.9454 20.3337 93.5417 20.3337C92.1379 20.3337 91 21.4717 91 22.8754C91 24.2791 92.1379 25.4171 93.5417 25.4171Z" fill="#374957"/>
<path d="M103.709 15.2496C105.112 15.2496 106.25 14.1116 106.25 12.7079C106.25 11.3042 105.112 10.1663 103.709 10.1663C102.305 10.1663 101.167 11.3042 101.167 12.7079C101.167 14.1116 102.305 15.2496 103.709 15.2496Z" fill="#374957"/>
<path d="M93.5417 5.08333C94.9454 5.08333 96.0833 3.94539 96.0833 2.54167C96.0833 1.13794 94.9454 0 93.5417 0C92.1379 0 91 1.13794 91 2.54167C91 3.94539 92.1379 5.08333 93.5417 5.08333Z" fill="#374957"/>
<path d="M149.459 35.5834C150.862 35.5834 152 34.4454 152 33.0417C152 31.6379 150.862 30.5 149.459 30.5C148.055 30.5 146.917 31.6379 146.917 33.0417C146.917 34.4454 148.055 35.5834 149.459 35.5834Z" fill="#374957"/>
<path d="M139.292 25.4171C140.695 25.4171 141.833 24.2791 141.833 22.8754C141.833 21.4717 140.695 20.3337 139.292 20.3337C137.888 20.3337 136.75 21.4717 136.75 22.8754C136.75 24.2791 137.888 25.4171 139.292 25.4171Z" fill="#374957"/>
<path d="M149.459 15.2496C150.862 15.2496 152 14.1116 152 12.7079C152 11.3042 150.862 10.1663 149.459 10.1663C148.055 10.1663 146.917 11.3042 146.917 12.7079C146.917 14.1116 148.055 15.2496 149.459 15.2496Z" fill="#374957"/>
<path d="M139.292 5.08333C140.695 5.08333 141.833 3.94539 141.833 2.54167C141.833 1.13794 140.695 0 139.292 0C137.888 0 136.75 1.13794 136.75 2.54167C136.75 3.94539 137.888 5.08333 139.292 5.08333Z" fill="#374957"/>
<path d="M126.584 60.9995C127.987 60.9995 129.125 59.8616 129.125 58.4579C129.125 57.0542 127.987 55.9163 126.584 55.9163C125.18 55.9163 124.042 57.0542 124.042 58.4579C124.042 59.8616 125.18 60.9995 126.584 60.9995Z" fill="#374957"/>
<path d="M116.417 50.8334C117.82 50.8334 118.958 49.6954 118.958 48.2917C118.958 46.8879 117.82 45.75 116.417 45.75C115.013 45.75 113.875 46.8879 113.875 48.2917C113.875 49.6954 115.013 50.8334 116.417 50.8334Z" fill="#374957"/>
<path d="M126.584 40.6671C127.987 40.6671 129.125 39.5292 129.125 38.1254C129.125 36.7217 127.987 35.5837 126.584 35.5837C125.18 35.5837 124.042 36.7217 124.042 38.1254C124.042 39.5292 125.18 40.6671 126.584 40.6671Z" fill="#374957"/>
<path d="M116.417 30.4996C117.82 30.4996 118.958 29.3617 118.958 27.9579C118.958 26.5542 117.82 25.4163 116.417 25.4163C115.013 25.4163 113.875 26.5542 113.875 27.9579C113.875 29.3617 115.013 30.4996 116.417 30.4996Z" fill="#374957"/>
<path d="M129.125 7.625C127.776 7.625 126.483 7.08944 125.53 6.13613C124.577 5.18282 124.041 3.88985 124.041 2.54167C124.041 1.86757 123.774 1.22109 123.297 0.744437C122.82 0.267782 122.174 0 121.5 0C120.826 0 120.179 0.267782 119.702 0.744437C119.226 1.22109 118.958 1.86757 118.958 2.54167V2.54167C118.958 3.88985 118.422 5.18282 117.469 6.13613C116.516 7.08944 115.223 7.625 113.875 7.625C113.201 7.625 112.554 7.89278 112.077 8.36944C111.601 8.84609 111.333 9.49257 111.333 10.1667C111.333 10.8408 111.601 11.4872 112.077 11.9639C112.554 12.4406 113.201 12.7083 113.875 12.7083V12.7083C115.223 12.7083 116.516 13.2439 117.469 14.1972C118.422 15.1505 118.958 16.4435 118.958 17.7917C118.958 18.4658 119.226 19.1122 119.702 19.5889C120.179 20.0655 120.826 20.3333 121.5 20.3333C122.174 20.3333 122.82 20.0655 123.297 19.5889C123.774 19.1122 124.041 18.4658 124.041 17.7917C124.041 16.4435 124.577 15.1505 125.53 14.1972C126.483 13.2439 127.776 12.7083 129.125 12.7083C129.799 12.7083 130.445 12.4406 130.922 11.9639C131.399 11.4872 131.666 10.8408 131.666 10.1667C131.666 9.49257 131.399 8.84609 130.922 8.36944C130.445 7.89278 129.799 7.625 129.125 7.625V7.625Z" fill="#9B51E0"/>
<path d="M108.792 48.2912C107.443 48.2912 106.151 47.7557 105.197 46.8024C104.244 45.8491 103.708 44.5561 103.708 43.2079C103.708 42.5338 103.441 41.8873 102.964 41.4107C102.487 40.934 101.841 40.6663 101.167 40.6663C100.493 40.6663 99.8461 40.934 99.3694 41.4107C98.8928 41.8873 98.625 42.5338 98.625 43.2079V43.2079C98.625 44.5561 98.0894 45.8491 97.1361 46.8024C96.1828 47.7557 94.8899 48.2912 93.5417 48.2912C92.8676 48.2912 92.2211 48.559 91.7444 49.0357C91.2678 49.5123 91 50.1588 91 50.8329C91 51.507 91.2678 52.1535 91.7444 52.6301C92.2211 53.1068 92.8676 53.3746 93.5417 53.3746V53.3746C94.8899 53.3746 96.1828 53.9101 97.1361 54.8634C98.0894 55.8167 98.625 57.1097 98.625 58.4579C98.625 59.132 98.8928 59.7785 99.3694 60.2551C99.8461 60.7318 100.493 60.9996 101.167 60.9996C101.841 60.9996 102.487 60.7318 102.964 60.2551C103.441 59.7785 103.708 59.132 103.708 58.4579C103.708 57.1097 104.244 55.8167 105.197 54.8634C106.151 53.9101 107.443 53.3746 108.792 53.3746V53.3746C109.466 53.3746 110.112 53.1068 110.589 52.6301C111.066 52.1535 111.333 51.507 111.333 50.8329C111.333 50.1588 111.066 49.5123 110.589 49.0357C110.112 48.559 109.466 48.2912 108.792 48.2912Z" fill="#F2994A"/>
<path d="M149.459 48.2912C148.11 48.2912 146.817 47.7557 145.864 46.8024C144.911 45.8491 144.375 44.5561 144.375 43.2079C144.375 42.5338 144.108 41.8873 143.631 41.4107C143.154 40.934 142.508 40.6663 141.834 40.6663C141.16 40.6663 140.513 40.934 140.036 41.4107C139.56 41.8873 139.292 42.5338 139.292 43.2079C139.292 44.5561 138.756 45.8491 137.803 46.8024C136.85 47.7557 135.557 48.2912 134.209 48.2912C133.535 48.2912 132.888 48.559 132.411 49.0357C131.935 49.5123 131.667 50.1588 131.667 50.8329C131.667 51.507 131.935 52.1535 132.411 52.6301C132.888 53.1068 133.535 53.3746 134.209 53.3746C135.557 53.3746 136.85 53.9101 137.803 54.8634C138.756 55.8167 139.292 57.1097 139.292 58.4579C139.292 59.132 139.56 59.7785 140.036 60.2551C140.513 60.7318 141.16 60.9996 141.834 60.9996C142.508 60.9996 143.154 60.7318 143.631 60.2551C144.108 59.7785 144.375 59.132 144.375 58.4579C144.375 57.1097 144.911 55.8167 145.864 54.8634C146.817 53.9101 148.11 53.3746 149.459 53.3746V53.3746C150.133 53.3746 150.779 53.1068 151.256 52.6301C151.733 52.1535 152 51.507 152 50.8329C152 50.1588 151.733 49.5123 151.256 49.0357C150.779 48.559 150.133 48.2912 149.459 48.2912Z" fill="#27AE60"/>
</g>
<circle cx="76" cy="83" r="76" fill="#F2F2F2"/>
<path d="M76.5 47L88.3965 71.0263L115 74.9027L95.75 93.5941L100.293 120L76.5 107.526L52.707 120L57.25 93.5941L38 74.9027L64.6035 71.0263L76.5 47Z" fill="#F2994A"/>
<defs>
<clipPath id="clip0_937:976">
<rect width="61" height="61" fill="white" transform="translate(91)"/>
</clipPath>
</defs>
</svg>
